<?xml version="1.0" encoding="utf-8"?>
<!-- Generator: Adobe Illustrator 16.0.0, SVG Export Plug-In . SVG Version: 6.00 Build 0)  -->
<!DOCTYPE svg PUBLIC "-//W3C//DTD SVG 1.1//EN" "http://www.w3.org/Graphics/SVG/1.1/DTD/svg11.dtd">
<svg version="1.1" id="Layer_1" xmlns="http://www.w3.org/2000/svg" xmlns:xlink="http://www.w3.org/1999/xlink" x="0px" y="0px"
	 width="40px" height="40px" viewBox="0 0 40 40" enable-background="new 0 0 40 40" xml:space="preserve">
<g>
	<path d="M32.576,18.304v3.424c0,0.471-0.171,0.875-0.513,1.217c-0.341,0.342-0.747,0.501-1.216,0.479h-7.424v7.456
		c0,0.469-0.171,0.863-0.512,1.184c-0.342,0.32-0.747,0.49-1.216,0.512h-3.424c-0.471,0-0.875-0.17-1.217-0.512
		c-0.342-0.34-0.502-0.736-0.48-1.184v-7.456H9.151c-0.49,0-0.896-0.159-1.215-0.479c-0.32-0.32-0.492-0.725-0.513-1.217v-3.424
		c0-0.49,0.171-0.896,0.513-1.216c0.34-0.319,0.746-0.49,1.215-0.512h7.424V9.151c0-0.469,0.16-0.874,0.48-1.215
		c0.32-0.342,0.725-0.513,1.217-0.513h3.424c0.49,0,0.896,0.171,1.216,0.513c0.319,0.341,0.49,0.746,0.512,1.215v7.425h7.424
		c0.469,0,0.875,0.171,1.216,0.512C32.405,17.43,32.576,17.835,32.576,18.304z"/>
</g>
</svg>
