<?xml version="1.0" encoding="utf-8"?>
<!-- Generator: Adobe Illustrator 16.0.0, SVG Export Plug-In . SVG Version: 6.00 Build 0)  -->
<!DOCTYPE svg PUBLIC "-//W3C//DTD SVG 1.1//EN" "http://www.w3.org/Graphics/SVG/1.1/DTD/svg11.dtd">
<svg version="1.1" id="Layer_1" xmlns="http://www.w3.org/2000/svg" xmlns:xlink="http://www.w3.org/1999/xlink" x="0px" y="0px"
	 width="40px" height="40px" viewBox="0 0 40 40" enable-background="new 0 0 40 40" xml:space="preserve">
<g>
	<path d="M17.934,21.092c-0.005,1.789-0.012,2.867-0.022,3.235l0.004,0.11c-0.049,0.613-0.328,1.169-0.836,1.667
		c-0.508,0.496-1.15,0.81-1.929,0.938c-0.852,0.154-1.634,0.045-2.346-0.333c-0.712-0.376-1.137-0.911-1.274-1.604
		c-0.125-0.692,0.083-1.331,0.624-1.915c0.541-0.584,1.249-0.961,2.124-1.13c0.777-0.152,1.51-0.076,2.195,0.229l-0.004-9.185
		l10.859-1.462c-0.049,8.906-0.077,10.741-0.088,11.098c0.012,0.624-0.242,1.192-0.76,1.701c-0.521,0.511-1.175,0.842-1.965,0.994
		c-0.877,0.157-1.67,0.053-2.383-0.312c-0.712-0.364-1.124-0.894-1.236-1.587c-0.113-0.694,0.088-1.345,0.604-1.953
		c0.515-0.607,1.216-0.99,2.104-1.147c0.827-0.142,1.598-0.037,2.31,0.315l-0.028-6.002l-7.889,1.149"/>
</g>
<path d="M5,5v27h30V5H5z M33,30H7V7h26V30z"/>
<rect x="7" y="34" width="26" height="2"/>
</svg>
