<?xml version="1.0" encoding="utf-8"?>
<!-- Generator: Adobe Illustrator 16.0.0, SVG Export Plug-In . SVG Version: 6.00 Build 0)  -->
<!DOCTYPE svg PUBLIC "-//W3C//DTD SVG 1.1//EN" "http://www.w3.org/Graphics/SVG/1.1/DTD/svg11.dtd">
<svg version="1.1" id="Layer_1" xmlns="http://www.w3.org/2000/svg" xmlns:xlink="http://www.w3.org/1999/xlink" x="0px" y="0px"
	 width="100px" height="100px" viewBox="0 0 100 100" enable-background="new 0 0 100 100" xml:space="preserve">
<g>
	<path d="M203.305,12.406h-0.59h-5.945h-1.654v51.486c-3.002-1.218-6.584-1.639-10.307-0.897
		c-8.447,1.692-14.209,8.481-12.869,15.167c1.336,6.688,9.265,10.74,17.715,9.047c7.146-1.428,12.32-6.52,12.945-12.104h0.114V33.42
		c11.113,1.763,12.755,10.538,11.399,14.209c-0.514,1.399,0.395,2.45,2.115,0C228.516,30.114,201.875,23.965,203.305,12.406z"/>
	<g>
		<path d="M184.512,47.744h-30.652v6.378h30.654L184.512,47.744L184.512,47.744z"/>
	</g>
	<g>
		<path d="M184.512,35.923h-30.652V42.3h30.654L184.512,35.923L184.512,35.923z"/>
	</g>
	<g>
		<path d="M184.512,24.103h-30.652v6.378h30.654L184.512,24.103L184.512,24.103z"/>
	</g>
</g>
<g>
	<path d="M76.737,20.714h-53.47v2.855h53.47V20.714z M72.085,14.997H27.913v2.862h44.173L72.085,14.997L72.085,14.997z
		 M17.449,26.431v58.572h65.102V26.431H17.449z M79.832,82.148H20.167V29.287h59.665V82.148z"/>
</g>
<path d="M53.221,40.851h-0.246h-2.49h-0.693v21.564c-1.257-0.51-2.757-0.687-4.316-0.376c-3.538,0.709-5.952,3.552-5.39,6.352
	c0.56,2.803,3.88,4.5,7.419,3.791c2.993-0.6,5.161-2.73,5.421-5.07h0.049V49.652c4.654,0.738,5.342,4.413,4.775,5.952
	c-0.215,0.586,0.164,1.024,0.885,0C63.781,48.268,52.623,45.692,53.221,40.851z"/>
</svg>
