<?xml version="1.0" encoding="utf-8"?>
<!-- Generator: Adobe Illustrator 16.0.0, SVG Export Plug-In . SVG Version: 6.00 Build 0)  -->
<!DOCTYPE svg PUBLIC "-//W3C//DTD SVG 1.1//EN" "http://www.w3.org/Graphics/SVG/1.1/DTD/svg11.dtd">
<svg version="1.1" id="Layer_1" xmlns="http://www.w3.org/2000/svg" xmlns:xlink="http://www.w3.org/1999/xlink" x="0px" y="0px"
	 width="40px" height="40px" viewBox="0 0 40 40" enable-background="new 0 0 40 40" xml:space="preserve">
<g>
	<path d="M18.934,20.092c-0.005,1.789-0.012,2.867-0.022,3.235l0.004,0.11c-0.049,0.612-0.328,1.168-0.836,1.666
		c-0.508,0.496-1.15,0.811-1.929,0.938c-0.852,0.153-1.634,0.045-2.346-0.333c-0.712-0.376-1.137-0.911-1.274-1.604
		c-0.125-0.692,0.083-1.332,0.624-1.916c0.541-0.584,1.249-0.961,2.124-1.129c0.777-0.152,1.51-0.076,2.195,0.229l-0.004-9.185
		l10.859-1.462c-0.05,8.906-0.077,10.741-0.088,11.098c0.012,0.624-0.242,1.191-0.761,1.701c-0.521,0.511-1.174,0.842-1.965,0.994
		c-0.877,0.156-1.67,0.053-2.383-0.312c-0.712-0.364-1.124-0.895-1.236-1.587c-0.112-0.694,0.088-1.345,0.604-1.953
		c0.515-0.606,1.216-0.99,2.104-1.147c0.826-0.142,1.598-0.037,2.31,0.315l-0.028-6.002l-7.889,1.149"/>
</g>
<path d="M5.5,4.5v27h30v-27H5.5z M33.5,29.5h-26v-23h26V29.5z"/>
<rect x="7.5" y="33.5" width="26" height="2"/>
</svg>
