<?xml version="1.0" encoding="utf-8"?>
<!-- Generator: Adobe Illustrator 16.0.0, SVG Export Plug-In . SVG Version: 6.00 Build 0)  -->
<!DOCTYPE svg PUBLIC "-//W3C//DTD SVG 1.1//EN" "http://www.w3.org/Graphics/SVG/1.1/DTD/svg11.dtd">
<svg version="1.1" id="Layer_1" xmlns="http://www.w3.org/2000/svg" xmlns:xlink="http://www.w3.org/1999/xlink" x="0px" y="0px"
	 width="40px" height="40px" viewBox="0 0 40 40" enable-background="new 0 0 40 40" xml:space="preserve">
<g>
	<path d="M4.368,34.733c0-0.19,0.011-0.321,0.032-0.618c0.021-0.299,0.138-0.71,0.352-1.349c0.214-0.64,0.496-1.118,0.848-1.491
		s1.04-0.758,2.064-1.185c1.024-0.428,2.176-0.868,3.456-1.339c1.28-0.469,2.24-0.849,2.88-1.146
		c0.768-0.385,1.354-0.959,1.76-1.728c0.405-0.769,0.619-1.545,0.64-2.335c0-0.575-0.331-1.236-0.992-1.982
		c-0.384-0.447-0.715-1.077-0.992-1.888c-0.939-0.384-1.408-1.152-1.408-2.304c0-0.875,0.16-1.504,0.48-1.888
		c-0.085-0.576-0.182-1.429-0.288-2.56l-0.064-0.672c-0.021-0.277,0-0.747,0.064-1.408c0.064-0.661,0.224-1.227,0.48-1.696
		c0.405-0.704,0.906-1.207,1.504-1.462C15.781,7.427,16.283,7.5,16.688,7.5h0.032c0.021,0,0.064-0.223,0.128-0.394
		c0.064-0.17,0.213-0.394,0.448-0.693c0.234-0.299,0.501-0.506,0.8-0.634c0.17-0.085,0.437-0.146,0.8-0.189
		c0.363-0.042,0.821-0.051,1.376-0.03s1.109,0.108,1.666,0.257c0.554,0.15,1.129,0.374,1.728,0.672
		c0.597,0.299,1.12,0.705,1.567,1.217c0.447,0.512,0.654,1.142,0.955,1.888c0.297,0.747,0.312,1.643,0.312,2.688v0.64
		c0,0.96-0.016,1.814-0.122,2.56c0.299,0.384,0.531,1.014,0.531,1.888c0,1.152-0.429,1.92-1.366,2.304
		c-0.277,0.811-0.587,1.44-0.972,1.888c-0.66,0.746-0.98,1.408-0.98,1.983c0,0.812,0.219,1.59,0.646,2.336
		c0.427,0.747,1.015,1.323,1.762,1.729c0.619,0.318,1.581,0.703,2.882,1.15c1.303,0.448,2.465,0.896,3.488,1.346
		c1.023,0.446,1.707,0.843,2.049,1.184c0.384,0.361,0.672,0.843,0.864,1.439c0.191,0.598,0.299,0.896,0.32,1.366l0.03,0.405H4.368
		V34.733z"/>
</g>
</svg>
