<?xml version="1.0" encoding="utf-8"?>
<!-- Generator: Adobe Illustrator 16.0.0, SVG Export Plug-In . SVG Version: 6.00 Build 0)  -->
<!DOCTYPE svg PUBLIC "-//W3C//DTD SVG 1.1//EN" "http://www.w3.org/Graphics/SVG/1.1/DTD/svg11.dtd">
<svg version="1.1" id="Layer_1" xmlns="http://www.w3.org/2000/svg" xmlns:xlink="http://www.w3.org/1999/xlink" x="0px" y="0px"
	 width="100px" height="100px" viewBox="0 0 100 100" enable-background="new 0 0 100 100" xml:space="preserve">
<g>
	<path d="M42.391,30.041c3.218,0,11.805,1.072,11.805-11.8c0-4.292-4.293-9.658-11.805-9.658c-6.522,0-9.655,5.278-9.655,11.799
		C32.736,26.823,39.172,30.041,42.391,30.041z"/>
	<path d="M48.879,52.852c2.296-2.023,6.615-5.84,10.924-9.686c-2.045-4.013-4.701-7.55-8.977-8.752
		c-0.243-0.091-0.487-0.181-0.75-0.235c-2.36-0.487-16.458-2.043-22.082,2.813c-4.538,3.92-11.352,16.997-8.748,24.581
		c0.027,0.084,0.074,0.17,0.106,0.254c0.272,0.703,0.679,1.418,1.189,2.135c2.415,3.391,7.122,6.818,10.943,9.25
		c0.855,0.543,1.668,1.045,2.397,1.475c0.77,0.457,1.617,0.678,2.451,0.684c1.653-0.014,3.261-0.865,4.167-2.389
		c1.376-2.32,0.612-5.314-1.708-6.689c-2.74-1.629-5.4-3.422-7.306-4.922c-0.58-0.457-1.087-0.887-1.506-1.275
		c-0.528-0.488-0.919-0.92-1.122-1.254l0.001-0.002c-0.171-0.195-0.315-0.379-0.406-0.529c-0.014-0.055-0.016-0.129-0.025-0.189
		c-0.292-1.801,1.165-6.287,3.057-9.789v8.22c1.401-0.953,1.899-1.861,2.571-3.096c0.805-1.48,1.908-3.51,4.438-6.222
		c2.496-2.679,5.028-4.349,7.289-4.868c0.495-0.113,0.979-0.191,1.443-0.191c0.131,0,0.255,0.013,0.381,0.023
		c1.514,0.108,2.748,0.857,3.414,2.109c0.561,1.048,1.139,3.337-1.252,6.896C49.281,51.93,49.02,52.469,48.879,52.852z"/>
	<path d="M76.074,45.587c-0.322-0.434-0.764-0.83-1.344-1.148c-0.057-0.032-0.119-0.06-0.178-0.089
		c-0.143-0.076-0.295-0.137-0.447-0.199c-0.312-0.126-0.639-0.221-0.984-0.28v0.001c-0.096-0.021-0.178-0.045-0.277-0.062
		c-0.193-0.023-0.383-0.034-0.572-0.034c-1.365,0-2.615,0.59-3.512,1.531c-0.475,0.63-0.801,1.42-0.908,2.351
		c-0.096,0.853-0.07,0.734-0.152,1.525c0,0.014-0.002,0.024-0.004,0.037c-0.42,3.948-1.143,5.581-2.027,6.091
		c-0.373-0.391-0.799-1.084-1.234-1.916c-0.016-0.027-0.027-0.051-0.043-0.078c-0.092-0.18-0.186-0.373-0.281-0.561l-7.141,7.039
		c0.08,0.121,0.164,0.242,0.248,0.363c0.549-0.227,1.143-0.402,1.812-0.404c3.229,0,4.307,2.041,4.619,2.918
		c0.273,0.758,0.33,1.592,0.244,2.449c0.463,0.084,0.936,0.139,1.434,0.139c1.049,0,2.184-0.197,3.408-0.639
		c6.846-2.449,7.541-9.072,8.213-15.475C77,48.666,77.1,46.963,76.074,45.587z"/>
	<path d="M24.015,88.098c2.653,2.039,5.741,3.32,8.899,3.32c4.486,0,9.112-2.588,12.836-9.273
		c5.427-9.744,8.615-7.645,12.564-10.877c1.75-1.432,5.98-9.074,0.824-9.074c-0.006,0-0.014,0-0.021,0
		c-1.096,0.006-2.611,1.449-4.312,1.449c-0.982,0-2.025-0.479-3.088-1.986l13.328-13.137c0.025-0.238,0.049-0.457,0.074-0.698
		c0.428-3.674,3.516-6.446,7.203-6.479l4.662-4.595c0.699,0.093,1.326,0.144,1.891,0.144c3.109,0,4.355-1.557,5.492-6.322
		c0.699-2.929,5.938-2.784,2.314-7.634c-0.115-0.156-0.344-0.227-0.656-0.227c-0.445,0-1.062,0.143-1.787,0.39l-0.641-1.233
		c0.088-0.128,0.166-0.268,0.205-0.429c0.184-0.747-0.275-1.505-1.023-1.686c-0.111-0.026-0.225-0.04-0.334-0.04
		c-0.627,0-1.199,0.428-1.354,1.063c-0.182,0.749,0.277,1.504,1.023,1.688c0.08,0.02,0.158,0.025,0.234,0.025
		c0.062,0,0.127-0.005,0.193-0.01l0.553,1.063c-0.613,0.259-1.262,0.564-1.936,0.912l-0.834-1.097
		c0.064-0.145,0.115-0.293,0.127-0.459c0.053-0.769-0.525-1.434-1.295-1.487c-0.035-0.003-0.068-0.004-0.104-0.004
		c-0.723,0-1.336,0.563-1.387,1.297c-0.053,0.769,0.525,1.435,1.295,1.489c0.02,0.001,0.039,0.002,0.061,0.002
		c0.125,0,0.246-0.026,0.363-0.059l0.686,0.903c-0.658,0.37-1.316,0.76-1.959,1.173l-0.861-1.008c0.057-0.147,0.098-0.297,0.1-0.464
		c0.01-0.771-0.604-1.402-1.377-1.412c-0.004,0-0.01,0-0.016,0c-0.762,0-1.385,0.61-1.396,1.377
		c-0.012,0.771,0.605,1.403,1.375,1.414c0.152,0,0.287-0.039,0.424-0.08l0.729,0.854c-0.73,0.509-1.406,1.025-1.996,1.534
		l-0.664-0.777c0.055-0.146,0.1-0.299,0.1-0.463c0.012-0.771-0.604-1.404-1.377-1.415c-0.006,0-0.014,0-0.018,0
		c-0.762,0-1.385,0.614-1.395,1.377c-0.012,0.773,0.605,1.404,1.377,1.414c0.002,0,0.004,0,0.004,0c0.148,0,0.283-0.038,0.414-0.078
		l0.668,0.777c-0.357,0.368-0.67,0.727-0.879,1.059c-0.785,1.24,1.383,2.613-0.805,4.698c-5.545,5.281-23.598,21.15-23.598,21.15
		s-4.886-0.641-1.066-6.326c2.136-3.177,1.535-5.226-0.516-5.226c-1.621-0.001-4.146,1.276-6.949,4.281
		c-4.998,5.362-3.739,7.47-7.882,9.97c1.754,1.451,4.505,3.463,7.644,5.326c1.681,0.998,2.874,2.592,3.359,4.486
		c0.482,1.896,0.2,3.865-0.799,5.547c-1.314,2.215-3.728,3.588-6.302,3.588c-1.312,0-2.603-0.354-3.732-1.027
		c-4.897-2.904-10.774-6.957-13.895-11.158C13.619,71.586,16.833,82.58,24.015,88.098z"/>
</g>
</svg>
