<?xml version="1.0" encoding="utf-8"?>
<!-- Generator: Adobe Illustrator 16.0.0, SVG Export Plug-In . SVG Version: 6.00 Build 0)  -->
<!DOCTYPE svg PUBLIC "-//W3C//DTD SVG 1.1//EN" "http://www.w3.org/Graphics/SVG/1.1/DTD/svg11.dtd">
<svg version="1.1" id="Layer_1" xmlns="http://www.w3.org/2000/svg" xmlns:xlink="http://www.w3.org/1999/xlink" x="0px" y="0px"
	 width="1000px" height="1000px" viewBox="0 0 1000 1000" enable-background="new 0 0 1000 1000" xml:space="preserve">
<path d="M499.938,107.406c-216.812,0-392.5,175.688-392.5,392.562c0,216.812,175.688,392.625,392.5,392.625
	c216.875,0,392.625-175.812,392.625-392.625C892.562,283.094,716.812,107.406,499.938,107.406z M499.938,140.094
	c198.5,0,359.938,161.5,359.938,359.875c0,87.375-31.312,167.438-83.188,229.812c-35.875-15-120.562-44.375-173-59.875
	c-4.438-1.375-5.188-1.562-5.188-20.25c0-15.312,6.312-30.812,12.5-43.875c6.688-14.312,14.625-38.125,17.438-59.688
	c7.938-9.25,18.75-27.438,25.75-62.125c6.062-30.562,3.25-41.688-0.812-52.188c-0.438-1.062-0.812-2.188-1.188-3.25
	c-1.562-7.188,0.562-44.438,5.812-73.375c3.625-19.812-0.938-62-28.188-96.938c-17.312-22.062-50.25-49.125-110.562-52.875
	l-33.062,0.062c-59.312,3.688-92.312,30.75-109.625,52.812c-27.25,34.938-31.75,77.125-28.188,96.938
	c5.25,28.938,7.375,66.188,5.875,73.25c-0.375,1.188-0.75,2.312-1.25,3.375c-4.062,10.5-6.938,21.625-0.75,52.188
	c6.875,34.688,17.75,52.875,25.75,62.125c2.812,21.562,10.75,45.375,17.438,59.688c4.875,10.375,7.188,24.562,7.188,44.562
	c0,18.625-0.688,18.875-4.938,20.188c-54.188,16-140.438,47.25-172.688,61.312c-52.875-62.688-84.875-143.562-84.875-231.875
	C140.125,301.594,301.562,140.094,499.938,140.094z M248.75,757.344c36.812-15.062,110.25-41.312,158.5-55.5
	c28.062-8.812,28.062-32.5,28.062-51.5c0-15.688-1.062-38.875-10.25-58.5c-6.375-13.5-13.562-36.5-15.188-54.5
	c-0.375-4.25-2.312-8.125-5.5-10.938c-4.625-4-14.062-18.875-20.062-48.875c-4.812-23.688-2.75-28.938-0.812-33.875
	c0.875-2.188,1.625-4.25,2.312-6.688c3.875-14.312-0.5-61.5-5.25-87.688c-2.062-11.312,0.5-43.688,21.875-70.875
	c19.062-24.375,47.875-38,84.75-40.375h31.062c37.75,2.375,66.688,16,85.75,40.375c21.25,27.188,23.875,59.562,21.812,70.875
	c-4.688,26.188-9.125,73.375-5.188,87.625c0.625,2.5,1.438,4.562,2.25,6.75c1.938,4.938,3.938,10.188-0.75,33.875
	c-6,30-15.5,44.875-20.125,48.875c-3.188,2.812-5.188,6.688-5.5,10.938c-1.562,18-8.812,41-15.125,54.5
	c-7.25,15.375-15.562,35.875-15.562,57.812c0,19,0,42.688,28.312,51.562c46.188,13.688,119.938,39,158.938,54.312
	c-65.125,64.5-154.5,104.312-253.125,104.312C402.375,859.844,313.688,820.719,248.75,757.344z"/>
</svg>
