<?xml version="1.0" encoding="utf-8"?>
<!-- Generator: Adobe Illustrator 16.0.0, SVG Export Plug-In . SVG Version: 6.00 Build 0)  -->
<!DOCTYPE svg PUBLIC "-//W3C//DTD SVG 1.1//EN" "http://www.w3.org/Graphics/SVG/1.1/DTD/svg11.dtd">
<svg version="1.1" id="Layer_1" xmlns="http://www.w3.org/2000/svg" xmlns:xlink="http://www.w3.org/1999/xlink" x="0px" y="0px"
	 width="40px" height="40px" viewBox="0 0 40 40" enable-background="new 0 0 40 40" xml:space="preserve">
<g>
	<path d="M4.368,34.968c0-0.191,0.011-0.438,0.032-0.735c0.021-0.299,0.138-0.769,0.352-1.408s0.496-1.147,0.848-1.521
		c0.352-0.372,1.04-0.772,2.064-1.199s2.176-0.875,3.456-1.345c1.28-0.469,2.24-0.853,2.88-1.151c0.768-0.384,1.354-0.96,1.76-1.729
		c0.405-0.768,0.619-1.546,0.64-2.336c0-0.575-0.331-1.237-0.992-1.983c-0.384-0.448-0.715-1.077-0.992-1.888
		c-0.939-0.384-1.408-1.152-1.408-2.304c0-0.875,0.16-1.504,0.48-1.888c-0.085-0.576-0.182-1.429-0.288-2.56l-0.064-0.672
		c-0.021-0.277,0-0.747,0.064-1.408s0.224-1.227,0.48-1.696c0.405-0.704,0.906-1.184,1.504-1.44c0.597-0.256,1.099-0.309,1.504-0.16
		h0.032c0.021-0.106,0.064-0.245,0.128-0.416c0.064-0.17,0.213-0.405,0.448-0.704c0.234-0.299,0.501-0.512,0.8-0.64
		c0.17-0.085,0.437-0.149,0.8-0.192c0.363-0.042,0.821-0.053,1.376-0.032c0.555,0.021,1.109,0.107,1.665,0.256
		c0.554,0.15,1.13,0.374,1.728,0.672c0.597,0.299,1.12,0.704,1.568,1.216c0.447,0.512,0.82,1.142,1.12,1.888
		c0.298,0.747,0.458,1.643,0.479,2.688v0.64c-0.085,0.96-0.182,1.814-0.288,2.56c0.299,0.384,0.448,1.014,0.448,1.888
		c0,1.152-0.47,1.92-1.408,2.304c-0.277,0.811-0.607,1.44-0.992,1.888c-0.661,0.746-0.991,1.408-0.991,1.983
		c0,0.812,0.213,1.59,0.64,2.336c0.427,0.747,1.013,1.323,1.76,1.729c0.619,0.319,1.579,0.704,2.88,1.151
		c1.302,0.448,2.464,0.896,3.488,1.345c1.024,0.447,1.706,0.843,2.048,1.184c0.384,0.362,0.672,0.843,0.864,1.44
		c0.191,0.597,0.299,1.13,0.32,1.6l0.031,0.64H4.368z"/>
</g>
</svg>
