<?xml version="1.0" encoding="utf-8"?>
<!-- Generator: Adobe Illustrator 16.0.0, SVG Export Plug-In . SVG Version: 6.00 Build 0)  -->
<!DOCTYPE svg PUBLIC "-//W3C//DTD SVG 1.1//EN" "http://www.w3.org/Graphics/SVG/1.1/DTD/svg11.dtd">
<svg version="1.1" id="Layer_1" xmlns="http://www.w3.org/2000/svg" xmlns:xlink="http://www.w3.org/1999/xlink" x="0px" y="0px"
	 width="40px" height="40px" viewBox="0 0 40 40" enable-background="new 0 0 40 40" xml:space="preserve">
<g>
	<path d="M33.824,13.552c0,0.47-0.16,0.875-0.48,1.217l-15.359,15.36c-0.342,0.318-0.748,0.479-1.217,0.479s-0.875-0.16-1.216-0.479
		l-8.896-8.896c-0.32-0.342-0.48-0.746-0.48-1.217c0-0.469,0.16-0.874,0.48-1.215l2.432-2.433c0.342-0.341,0.746-0.512,1.217-0.512
		c0.469,0,0.874,0.171,1.215,0.512l5.248,5.28L28.48,9.904c0.341-0.341,0.746-0.513,1.216-0.513c0.469,0,0.874,0.172,1.216,0.513
		l2.432,2.432C33.664,12.678,33.824,13.083,33.824,13.552z"/>
</g>
</svg>
