<?xml version="1.0" encoding="utf-8"?>
<!-- Generator: Adobe Illustrator 16.0.0, SVG Export Plug-In . SVG Version: 6.00 Build 0)  -->
<!DOCTYPE svg PUBLIC "-//W3C//DTD SVG 1.1//EN" "http://www.w3.org/Graphics/SVG/1.1/DTD/svg11.dtd">
<svg version="1.1" id="Layer_1" xmlns="http://www.w3.org/2000/svg" xmlns:xlink="http://www.w3.org/1999/xlink" x="0px" y="0px"
	 width="40px" height="40px" viewBox="0 0 40 40" enable-background="new 0 0 40 40" xml:space="preserve">
<g>
	<path d="M30.092,27.693l-2.421,2.421c-0.333,0.333-0.739,0.498-1.223,0.498c-0.482,0-0.883-0.174-1.199-0.521L20,24.842
		l-5.272,5.272c-0.332,0.331-0.731,0.489-1.199,0.475c-0.468-0.015-0.875-0.182-1.222-0.497L9.886,27.67
		c-0.333-0.332-0.499-0.738-0.499-1.222c-0.001-0.482,0.166-0.876,0.497-1.177l5.272-5.272l-5.25-5.249
		c-0.347-0.347-0.521-0.746-0.52-1.198c0-0.453,0.165-0.86,0.498-1.223l2.421-2.421c0.347-0.347,0.754-0.512,1.222-0.497
		c0.466,0.015,0.874,0.181,1.221,0.497l5.25,5.25l5.25-5.25c0.332-0.332,0.731-0.505,1.199-0.52c0.468-0.015,0.875,0.15,1.223,0.498
		l2.421,2.421c0.347,0.347,0.513,0.754,0.497,1.222c-0.015,0.467-0.181,0.875-0.497,1.221L24.842,20l5.249,5.249
		c0.332,0.332,0.498,0.74,0.498,1.222C30.589,26.954,30.424,27.361,30.092,27.693z"/>
</g>
</svg>
