<?xml version="1.0" encoding="utf-8"?>
<!-- Generator: Adobe Illustrator 16.0.0, SVG Export Plug-In . SVG Version: 6.00 Build 0)  -->
<!DOCTYPE svg PUBLIC "-//W3C//DTD SVG 1.1//EN" "http://www.w3.org/Graphics/SVG/1.1/DTD/svg11.dtd">
<svg version="1.1" id="Layer_1" xmlns="http://www.w3.org/2000/svg" xmlns:xlink="http://www.w3.org/1999/xlink" x="0px" y="0px"
	 width="1000px" height="1000px" viewBox="0 0 1000 1000" enable-background="new 0 0 1000 1000" xml:space="preserve">
<path d="M908.062,582.688V419.062h-91.125c-7.438-30.625-18.938-59.5-34.25-86.188l63.438-63.312L730.438,153.938l-62.062,62
	c-26.938-16.375-56.25-28.875-87.5-36.875V91.938H417.312v87.125c-31.25,8-60.625,20.5-87.5,36.875l-62.062-62L152.062,269.562
	l63.375,63.312c-15.312,26.688-26.812,55.562-34.188,86.188H90.125v163.625h93.938c8.062,29.25,20.062,56.688,35.438,82.062
	l-67.438,67.438L267.75,847.875l68.75-68.75c25.062,14.375,52.125,25.375,80.812,32.75v97.875h163.562v-97.875
	c28.625-7.375,55.75-18.375,80.812-32.75l68.75,68.688l115.688-115.625l-67.5-67.438c15.375-25.375,27.438-52.812,35.5-82.062
	H908.062z M499.062,615.375c-63.25,0-114.5-51.25-114.5-114.562c0-63.188,51.25-114.5,114.5-114.5s114.5,51.312,114.5,114.5
	C613.562,564.125,562.312,615.375,499.062,615.375z"/>
</svg>
