<?xml version="1.0" encoding="utf-8"?>
<!-- Generator: Adobe Illustrator 16.0.0, SVG Export Plug-In . SVG Version: 6.00 Build 0)  -->
<!DOCTYPE svg PUBLIC "-//W3C//DTD SVG 1.1//EN" "http://www.w3.org/Graphics/SVG/1.1/DTD/svg11.dtd">
<svg version="1.1" id="Layer_1" xmlns="http://www.w3.org/2000/svg" xmlns:xlink="http://www.w3.org/1999/xlink" x="0px" y="0px"
	 width="1000px" height="1000px" viewBox="0 0 1000 1000" enable-background="new 0 0 1000 1000" xml:space="preserve">
<path d="M986.082,598.301v-194.84H877.573c-8.857-36.468-22.552-70.852-40.784-102.631l75.54-75.39L774.571,87.758l-73.901,73.828
	c-32.077-19.499-66.98-34.384-104.192-43.91V13.93H401.711v103.746c-37.211,9.526-72.19,24.411-104.192,43.91l-73.902-73.828
	L85.858,225.44l75.465,75.39c-18.233,31.779-31.927,66.162-40.71,102.631H12.105v194.84h111.858
	c9.6,34.83,23.889,67.502,42.199,97.717l-80.303,80.304l137.757,137.758l81.865-81.866c29.844,17.117,62.069,30.216,96.229,38.998
	v116.547h194.765V871.211c34.086-8.782,66.386-21.881,96.228-38.998l81.866,81.791l137.759-137.683l-80.378-80.303
	c18.309-30.216,32.673-62.888,42.272-97.718H986.082z M499.057,637.225c-75.316,0-136.343-61.027-136.343-136.418
	c0-75.242,61.027-136.343,136.343-136.343S635.4,425.564,635.4,500.807C635.4,576.197,574.373,637.225,499.057,637.225z"/>
</svg>
