<?xml version="1.0" encoding="utf-8"?>
<!-- Generator: Adobe Illustrator 16.0.0, SVG Export Plug-In . SVG Version: 6.00 Build 0)  -->
<!DOCTYPE svg PUBLIC "-//W3C//DTD SVG 1.1//EN" "http://www.w3.org/Graphics/SVG/1.1/DTD/svg11.dtd">
<svg version="1.1" id="Layer_1" xmlns="http://www.w3.org/2000/svg" xmlns:xlink="http://www.w3.org/1999/xlink" x="0px" y="0px"
	 width="40px" height="40px" viewBox="0 0 40 40" enable-background="new 0 0 40 40" xml:space="preserve">
<g>
	<path d="M33.5,18.032v3.969c0,0.147,0.062,0.287-0.023,0.416c-0.085,0.127-0.15,0.203-0.301,0.224l-3.302,0.512
		c-0.213,0.641-0.424,1.186-0.658,1.633c0.404,0.576,1.041,1.396,1.895,2.465c0.128,0.128,0.195,0.268,0.195,0.416
		s-0.053,0.287-0.159,0.416c-0.319,0.447-0.905,1.1-1.759,1.951c-0.854,0.854-1.419,1.27-1.694,1.248
		c-0.149,0-0.299-0.053-0.448-0.16l-2.464-1.92c-0.533,0.277-1.077,0.502-1.633,0.673c-0.191,1.62-0.362,2.622-0.513,3.22
		c-0.085,0.342-0.299,0.406-0.64,0.406h-3.968c-0.171,0-0.32,0.053-0.448-0.053c-0.128-0.107-0.191-0.183-0.191-0.331l-0.513-3.269
		c-0.575-0.192-1.109-0.403-1.6-0.66l-2.528,1.927c-0.128,0.107-0.277,0.164-0.447,0.164c-0.172,0-0.32-0.062-0.449-0.19
		c-1.492-1.365-2.475-2.366-2.943-3.007c-0.086-0.107-0.128-0.233-0.128-0.384c0-0.148,0.053-0.288,0.159-0.416
		c0.172-0.256,0.47-0.65,0.896-1.184c0.426-0.535,0.746-0.961,0.961-1.281c-0.32-0.596-0.566-1.184-0.736-1.76l-3.264-0.479
		c-0.15-0.021-0.16-0.098-0.245-0.225C6.467,22.225,6.5,22.086,6.5,21.938v-3.969c0-0.149-0.054-0.288,0.052-0.416
		c0.106-0.128,0.159-0.202,0.266-0.224l3.3-0.513c0.171-0.532,0.392-1.077,0.692-1.632c-0.492-0.683-1.139-1.504-1.928-2.464
		c-0.128-0.149-0.195-0.288-0.195-0.416c0-0.128,0.052-0.267,0.158-0.416c0.32-0.427,0.906-1.066,1.76-1.92
		c0.854-0.853,1.418-1.28,1.696-1.28c0.148,0,0.309,0.054,0.479,0.16l2.464,1.92c0.512-0.277,1.045-0.501,1.6-0.672
		c0.192-1.621,0.373-2.624,0.545-3.222c0.063-0.32,0.276-0.374,0.64-0.374h3.968c0.148,0,0.288-0.063,0.416,0.023
		c0.128,0.085,0.202,0.16,0.224,0.331l0.48,3.27c0.597,0.191,1.131,0.403,1.6,0.659l2.562-1.926c0.105-0.106,0.24-0.164,0.398-0.164
		c0.16,0,0.314,0.052,0.465,0.158c1.535,1.43,2.518,2.442,2.943,3.04c0.085,0.106,0.128,0.234,0.128,0.383s-0.043,0.288-0.128,0.416
		l-1.889,2.464c0.3,0.598,0.545,1.185,0.736,1.761l3.264,0.479c0.148,0.021,0.173,0.097,0.28,0.224
		C33.583,17.745,33.5,17.884,33.5,18.032z M24.559,19.984c0-1.259-0.438-2.336-1.312-3.231c-0.875-0.896-1.952-1.344-3.232-1.344
		c-1.279,0-2.357,0.447-3.231,1.344c-0.875,0.896-1.323,1.973-1.345,3.231c-0.022,1.258,0.428,2.336,1.345,3.232
		s1.995,1.345,3.231,1.345c1.237,0,2.315-0.449,3.232-1.345S24.6,21.243,24.559,19.984z"/>
</g>
</svg>
