<?xml version="1.0" encoding="utf-8"?>
<!-- Generator: Adobe Illustrator 16.0.0, SVG Export Plug-In . SVG Version: 6.00 Build 0)  -->
<!DOCTYPE svg PUBLIC "-//W3C//DTD SVG 1.1//EN" "http://www.w3.org/Graphics/SVG/1.1/DTD/svg11.dtd">
<svg version="1.1" id="Layer_1" xmlns="http://www.w3.org/2000/svg" xmlns:xlink="http://www.w3.org/1999/xlink" x="0px" y="0px"
	 width="40px" height="40px" viewBox="0 0 40 40" enable-background="new 0 0 40 40" xml:space="preserve">
<g>
	<path d="M33.709,18.032v3.969c0,0.148-0.043,0.287-0.128,0.416c-0.085,0.127-0.203,0.203-0.352,0.224l-3.328,0.512
		c-0.214,0.64-0.438,1.185-0.672,1.632c0.404,0.576,1.034,1.397,1.888,2.465c0.128,0.128,0.192,0.267,0.192,0.416
		s-0.054,0.287-0.16,0.416c-0.32,0.447-0.907,1.099-1.761,1.951c-0.853,0.854-1.419,1.27-1.695,1.248
		c-0.149,0-0.299-0.053-0.448-0.16l-2.464-1.92c-0.533,0.278-1.077,0.502-1.632,0.673c-0.192,1.62-0.363,2.73-0.513,3.327
		c-0.085,0.342-0.299,0.513-0.64,0.513h-3.968c-0.171,0-0.32-0.054-0.448-0.16c-0.128-0.107-0.191-0.235-0.191-0.384l-0.513-3.296
		c-0.575-0.192-1.109-0.416-1.6-0.673l-2.528,1.92c-0.128,0.107-0.277,0.16-0.447,0.16c-0.172,0-0.32-0.063-0.449-0.191
		c-1.492-1.365-2.475-2.368-2.943-3.008c-0.086-0.107-0.128-0.235-0.128-0.385c0-0.148,0.053-0.288,0.159-0.416
		c0.172-0.256,0.47-0.65,0.896-1.184s0.746-0.96,0.961-1.28c-0.32-0.597-0.566-1.184-0.736-1.76l-3.264-0.479
		c-0.15-0.021-0.268-0.097-0.353-0.225s-0.14-0.267-0.16-0.416v-3.968c0-0.149,0.054-0.288,0.16-0.416s0.213-0.202,0.319-0.224
		l3.328-0.513c0.171-0.532,0.405-1.077,0.705-1.632c-0.492-0.683-1.132-1.504-1.921-2.464c-0.128-0.149-0.192-0.288-0.192-0.416
		s0.054-0.267,0.16-0.416c0.32-0.427,0.906-1.066,1.76-1.92c0.854-0.853,1.419-1.28,1.697-1.28c0.148,0,0.309,0.054,0.479,0.16
		l2.464,1.92c0.512-0.277,1.045-0.501,1.6-0.672c0.192-1.621,0.373-2.73,0.545-3.328c0.063-0.32,0.276-0.48,0.64-0.48h3.968
		c0.149,0,0.288,0.043,0.416,0.129c0.128,0.085,0.202,0.213,0.224,0.384l0.48,3.296c0.597,0.191,1.131,0.416,1.6,0.672l2.561-1.92
		c0.106-0.106,0.24-0.16,0.399-0.16c0.16,0,0.314,0.054,0.465,0.16c1.535,1.43,2.517,2.443,2.943,3.04
		c0.085,0.106,0.128,0.235,0.128,0.384c0,0.149-0.043,0.288-0.128,0.416l-1.888,2.464c0.299,0.598,0.544,1.185,0.736,1.761
		l3.264,0.479c0.148,0.021,0.277,0.097,0.384,0.224C33.688,17.745,33.73,17.884,33.709,18.032z M24.558,19.984
		c0-1.259-0.438-2.336-1.312-3.231c-0.875-0.896-1.952-1.344-3.232-1.344c-1.279,0-2.357,0.447-3.231,1.344
		c-0.875,0.896-1.323,1.973-1.345,3.231s0.428,2.337,1.345,3.232s1.995,1.344,3.231,1.344c1.237,0,2.315-0.448,3.232-1.344
		S24.6,21.243,24.558,19.984z"/>
</g>
</svg>
