<?xml version="1.0" encoding="utf-8"?>
<!-- Generator: Adobe Illustrator 16.0.0, SVG Export Plug-In . SVG Version: 6.00 Build 0)  -->
<!DOCTYPE svg PUBLIC "-//W3C//DTD SVG 1.1//EN" "http://www.w3.org/Graphics/SVG/1.1/DTD/svg11.dtd">
<svg version="1.1" id="Layer_1" xmlns="http://www.w3.org/2000/svg" xmlns:xlink="http://www.w3.org/1999/xlink" x="0px" y="0px"
	 width="40px" height="40px" viewBox="0 0 40 40" enable-background="new 0 0 40 40" xml:space="preserve">
<g>
	<path d="M34.863,20.944c0,1.983-0.362,3.861-1.088,5.632l-0.352,0.863l-3.296,0.576c-0.277,1.003-0.821,1.824-1.632,2.464
		c-0.812,0.641-1.739,0.95-2.784,0.929v0.576c0,0.171-0.054,0.309-0.16,0.416c-0.107,0.106-0.245,0.159-0.416,0.159h-1.152
		c-0.171,0-0.31-0.053-0.416-0.159c-0.106-0.107-0.159-0.245-0.159-0.416V21.712c0-0.17,0.053-0.309,0.159-0.416
		c0.106-0.106,0.245-0.16,0.416-0.16h1.152c0.171,0,0.309,0.054,0.416,0.16c0.106,0.107,0.16,0.246,0.16,0.416v0.576
		c0.832,0,1.6,0.213,2.304,0.64s1.259,0.992,1.664,1.696l1.216-0.225c0.341-1.13,0.513-2.281,0.513-3.455
		c0-1.75-0.523-3.402-1.568-4.961c-1.046-1.557-2.453-2.805-4.224-3.744c-1.771-0.938-3.648-1.396-5.633-1.375
		s-3.861,0.479-5.632,1.375c-1.771,0.896-3.179,2.145-4.224,3.744c-1.046,1.601-1.568,3.265-1.568,4.992
		c0,1.152,0.171,2.294,0.512,3.424l1.217,0.225c0.404-0.725,0.959-1.291,1.664-1.696c0.703-0.405,1.482-0.618,2.336-0.64v-0.576
		c0-0.17,0.053-0.309,0.16-0.416c0.105-0.106,0.244-0.16,0.416-0.16h1.119c0.171,0,0.31,0.054,0.416,0.16
		c0.107,0.107,0.16,0.246,0.16,0.416v10.272c0,0.171-0.053,0.309-0.16,0.416c-0.106,0.106-0.245,0.159-0.416,0.159h-1.119
		c-0.172,0-0.311-0.053-0.416-0.159c-0.107-0.107-0.16-0.245-0.16-0.416v-0.576c-1.046,0-1.984-0.31-2.816-0.929
		c-0.832-0.618-1.365-1.439-1.6-2.464l-3.297-0.576l-0.352-0.863c-0.726-1.771-1.088-3.638-1.088-5.601
		c0-1.812,0.395-3.552,1.184-5.216s1.856-3.104,3.2-4.319c1.345-1.217,2.933-2.188,4.769-2.912c1.834-0.726,3.732-1.088,5.695-1.088
		s3.872,0.362,5.729,1.088c1.855,0.725,3.435,1.695,4.735,2.912c1.302,1.215,2.368,2.655,3.2,4.319s1.237,3.403,1.216,5.216V20.944z
		"/>
</g>
</svg>
