<?xml version="1.0" encoding="utf-8"?>
<!-- Generator: Adobe Illustrator 16.0.0, SVG Export Plug-In . SVG Version: 6.00 Build 0)  -->
<!DOCTYPE svg PUBLIC "-//W3C//DTD SVG 1.1//EN" "http://www.w3.org/Graphics/SVG/1.1/DTD/svg11.dtd">
<svg version="1.1" id="Layer_1" xmlns="http://www.w3.org/2000/svg" xmlns:xlink="http://www.w3.org/1999/xlink" x="0px" y="0px"
	 width="40px" height="40px" viewBox="0 0 40 40" enable-background="new 0 0 40 40" xml:space="preserve">
<g>
	<path d="M34.5,20.943c0,1.983-0.181,3.861-0.906,5.633l-0.262,0.863l-3.25,0.576c-0.277,1.002-0.903,1.823-1.715,2.463
		c-0.812,0.642-1.867,0.951-2.867,0.93v0.576c0,0.17,0.052,0.279-0.055,0.387c-0.107,0.105-0.139,0.129-0.311,0.129h-1.152
		c-0.17,0-0.264-0.023-0.37-0.129c-0.105-0.107-0.112-0.217-0.112-0.387V21.712c0-0.17,0.007-0.128,0.112-0.233
		c0.106-0.107,0.2,0.021,0.37,0.021h1.152c0.172,0,0.203-0.129,0.311-0.021c0.106,0.105,0.055,0.063,0.055,0.233v0.576
		c1,0,1.705,0.213,2.41,0.64c0.703,0.428,1.311,0.992,1.717,1.696l1.241-0.226c0.342-1.129,0.526-2.28,0.526-3.455
		c0-1.75-0.517-3.401-1.562-4.96c-1.046-1.557-2.449-2.805-4.22-3.744c-1.771-0.938-3.647-1.396-5.632-1.375
		c-1.985,0.021-3.86,0.479-5.631,1.375c-1.771,0.896-3.179,2.145-4.224,3.744c-1.046,1.601-1.567,3.265-1.567,4.992
		c0,1.152,0.171,2.295,0.512,3.424l1.217,0.226c0.404-0.726,1.065-1.291,1.77-1.696c0.703-0.404,1.442-0.617,2.442-0.64v-0.576
		c0-0.17-0.053-0.128,0.054-0.233c0.104-0.107,0.138,0.021,0.31,0.021h1.119c0.171,0,0.281-0.129,0.386-0.021
		c0.107,0.105,0.131,0.063,0.131,0.233v10.272c0,0.17-0.023,0.279-0.131,0.387c-0.105,0.105-0.215,0.129-0.386,0.129h-1.119
		c-0.172,0-0.205-0.023-0.31-0.129c-0.107-0.107-0.054-0.217-0.054-0.387v-0.576c-1,0-2.09-0.311-2.922-0.93
		c-0.832-0.617-1.418-1.438-1.653-2.463l-3.323-0.576l-0.365-0.863c-0.726-1.771-1.095-3.639-1.095-5.602
		c0-1.812,0.392-3.552,1.181-5.216c0.789-1.664,1.854-3.104,3.198-4.319c1.345-1.217,2.933-2.188,4.769-2.912
		c1.834-0.726,3.731-1.088,5.694-1.088c1.962,0,3.872,0.362,5.729,1.088c1.854,0.725,3.435,1.695,4.735,2.912
		c1.302,1.215,2.186,2.655,3.018,4.319c0.832,1.664,1.035,3.403,1.035,5.216V20.943z"/>
</g>
</svg>
