<?xml version="1.0" encoding="utf-8"?>
<!-- Generator: Adobe Illustrator 16.0.0, SVG Export Plug-In . SVG Version: 6.00 Build 0)  -->
<!DOCTYPE svg PUBLIC "-//W3C//DTD SVG 1.1//EN" "http://www.w3.org/Graphics/SVG/1.1/DTD/svg11.dtd">
<svg version="1.1" id="Layer_1" xmlns="http://www.w3.org/2000/svg" xmlns:xlink="http://www.w3.org/1999/xlink" x="0px" y="0px"
	 width="1000px" height="1000px" viewBox="0 0 1000 1000" enable-background="new 0 0 1000 1000" xml:space="preserve">
<path d="M500,91.063c-0.125,0-0.25,0-0.438,0c0,0-0.062,0-0.125,0c-0.125,0-0.25,0-0.438,0C273.562,91.625,91.062,274.5,91.062,500
	c0,225.437,182.5,408.375,407.938,408.937c0.188,0,0.312,0,0.438,0c0.062,0,0.125,0,0.125,0c0.188,0,0.312,0,0.438,0
	c225.813,0,408.938-183.188,408.938-408.937C908.938,274.125,725.812,91.063,500,91.063z M516.312,335.813
	c43.375-1.25,85.562-6.938,126.188-16.812c12.25,48.188,19.875,103.75,21,164.625H516.312V335.813z M516.312,303.063v-176.75
	c44.125,12.25,88.75,71.062,117.25,161.188C595.812,296.625,556.625,301.938,516.312,303.063z M483.562,126v177.062
	C443,301.938,403.5,296.5,365.375,287.25C394.125,196.563,439.25,137.563,483.562,126z M483.562,335.75v147.875H335.375
	c1.25-60.938,8.812-116.625,21.062-164.875C397.375,328.813,439.937,334.563,483.562,335.75z M302.5,483.625H124.187
	c3.625-84.062,34.875-161.125,85.062-222.125c36.438,20,75.062,36.438,115.562,48.75C311.625,362.375,303.687,421.25,302.5,483.625z
	 M302.5,516.312c1.188,62.438,9.125,121.312,22.312,173.438c-40.5,12.312-79.125,28.688-115.562,48.75
	c-50.188-61-81.438-138.062-85.062-222.188H302.5z M335.375,516.312h148.188v147.75c-43.625,1.125-86.188,6.938-127.125,17
	C344.187,632.875,336.625,577.312,335.375,516.312z M483.562,696.75v177.312c-44.375-11.625-89.5-70.688-118.188-161.562
	C403.5,703.312,443,697.875,483.562,696.75z M516.312,873.625V696.75c40.312,1.125,79.5,6.5,117.312,15.562
	C605.125,802.562,560.438,861.375,516.312,873.625z M516.312,664.062v-147.75H663.5c-1.125,60.875-8.75,116.375-21,164.562
	C601.938,670.938,559.688,665.188,516.312,664.062z M696.438,516.312H875.75c-3.625,84.125-34.938,161.125-85,222.188
	c-36.812-20.25-75.75-36.688-116.562-49.062C687.375,637.312,695.25,578.625,696.438,516.312z M696.438,483.625
	c-1.188-62.312-9.062-121.062-22.25-173.188c40.812-12.375,79.688-28.875,116.438-49c50.188,60.938,81.5,138.062,85.125,222.188
	H696.438z M768.062,236.375c-32.5,17.312-66.875,31.688-102.75,42.5c-19.188-61.5-46-111.75-77.75-144.75
	C657.25,150.875,719.438,186.875,768.062,236.375z M411.062,134.5c-31.562,32.875-58.312,82.875-77.312,144.062
	c-35.562-10.812-69.562-24.938-101.875-42.188C280.25,187.25,341.937,151.313,411.062,134.5z M231.75,763.438
	c32.312-17.188,66.375-31.375,101.938-42.25C352.75,782.5,379.5,832.562,411.062,865.5
	C341.875,848.688,280.187,812.688,231.75,763.438z M587.562,865.75c31.812-32.938,58.688-83.188,77.812-144.812
	c35.875,10.938,70.25,25.188,102.812,42.562C719.5,813,657.312,849.125,587.562,865.75z"/>
</svg>
