<?xml version="1.0" encoding="utf-8"?>
<!-- Generator: Adobe Illustrator 16.0.0, SVG Export Plug-In . SVG Version: 6.00 Build 0)  -->
<!DOCTYPE svg PUBLIC "-//W3C//DTD SVG 1.1//EN" "http://www.w3.org/Graphics/SVG/1.1/DTD/svg11.dtd">
<svg version="1.1" id="Layer_1" xmlns="http://www.w3.org/2000/svg" xmlns:xlink="http://www.w3.org/1999/xlink" x="0px" y="0px"
	 width="100px" height="100px" viewBox="0 0 100 100" enable-background="new 0 0 100 100" xml:space="preserve">
<path d="M20.611,84.65V69.943c-5.58-0.407-9.029-1.523-9.029-2.638l0.71-20.595c0-1.217,7-1.826,8.319-1.826V22.26
	c-5.174-3.043-8.724-6.797-8.724-8.826c0-1.217,1.116-1.624,2.638-1.624c2.535,0,7.101,1.319,11.564,3.856
	c5.884,3.348,9.942,7,9.942,9.739c-0.405,1.319-1.521,1.725-2.738,1.725c-2.231,0-5.58-1.116-9.029-2.84v20.595h2.028l2.536,0.405
	c-0.507-0.507-0.913-1.319-0.913-1.825l1.624-12.682c0.305-2.435,5.175-3.145,7.913-3.145c4.057,0,8.318,1.116,10.856,2.942
	c1.319,0.71,1.825,1.624,1.825,2.536l-1.217,11.262h2.131c-0.103-0.406-0.103-0.913-0.103-1.319l-0.812-7.913
	c0-3.652,4.769-6.189,9.739-6.189c3.754,0,7.711,1.217,8.32,3.855c0.202,0.711,0.202,1.42,0.202,2.029c0,0.711,0,1.217,0.202,1.826
	l2.334-0.609V25.101c-6.391-0.203-11.361-1.117-11.361-2.637c0-1.218,4.971-2.334,11.361-2.537v-1.116h3.653v1.116
	c6.29,0.203,11.057,1.319,11.057,2.537c0,1.318-4.767,2.434-11.057,2.637v10.044l4.665-0.508v-8.623h3.653v8.421
	c4.972,0.406,11.16,2.029,12.885,2.434l0.507,0.103c-2.943,0.811-8.42,2.131-13.392,2.84V84.45h-3.653V39.812
	c-1.521,0-3.144-0.406-4.665-0.608v4.262c2.029,0.304,3.347,0.709,3.347,1.419c0,2.638,0.204,5.174,0.406,7.606
	c-0.609,1.018-1.724,1.423-3.753,2.032V85.87h-3.653l-5.884-4.565c-3.855,3.652-9.03,5.885-14.71,5.885
	c-5.478,0-10.448-2.031-14.305-5.274l-6.492,4.362l-2.029-2.943l6.087-4.059c-2.13-2.74-3.652-5.885-4.362-9.131h-4.971V84.65
	H20.611L20.611,84.65z M67.583,65.886c0-10.349-6.596-17.249-17.247-17.249c-9.942,0-17.248,7.812-17.248,17.754
	c0,9.03,7.711,16.537,17.248,16.537C59.872,82.928,67.583,75.218,67.583,65.886L67.583,65.886z M67.481,78.566l3.449,2.738v-9.941
	C70.22,74,69.105,76.334,67.481,78.566L67.481,78.566z M70.931,43.058v-4.565l-2.334-0.609c0.304,3.754,0.304,4.059,0.509,4.059
	c0,0.406,0,0.811-0.204,0.912C69.612,42.855,70.22,43.058,70.931,43.058L70.931,43.058z M68.901,55.231
	c0.913,1.626,1.522,3.249,2.029,5.176v-5.378C70.22,55.231,69.612,55.231,68.901,55.231L68.901,55.231z M35.322,50.463l1.928-1.724
	l-1.827-0.305C35.422,49.146,35.322,49.652,35.322,50.463z"/>
</svg>
