<?xml version="1.0" encoding="utf-8"?>
<!-- Generator: Adobe Illustrator 16.0.0, SVG Export Plug-In . SVG Version: 6.00 Build 0)  -->
<!DOCTYPE svg PUBLIC "-//W3C//DTD SVG 1.1//EN" "http://www.w3.org/Graphics/SVG/1.1/DTD/svg11.dtd">
<svg version="1.1" id="Layer_1" xmlns="http://www.w3.org/2000/svg" xmlns:xlink="http://www.w3.org/1999/xlink" x="0px" y="0px"
	 width="40px" height="40px" viewBox="0 0 40 40" enable-background="new 0 0 40 40" xml:space="preserve">
<g>
	<path d="M8.8,16.48c0.981,0,1.813,0.342,2.496,1.024c0.683,0.683,1.024,1.504,1.024,2.464s-0.341,1.792-1.024,2.497
		C10.613,23.168,9.781,23.52,8.8,23.52c-0.981,0-1.813-0.352-2.496-1.055C5.621,21.76,5.28,20.928,5.28,19.968
		s0.341-1.781,1.024-2.464C6.987,16.822,7.819,16.48,8.8,16.48z M20,16.48c0.981,0,1.813,0.342,2.496,1.024s1.024,1.504,1.024,2.464
		s-0.353,1.792-1.057,2.497C21.761,23.168,20.939,23.52,20,23.52c-0.939,0-1.76-0.352-2.464-1.055
		c-0.704-0.705-1.056-1.537-1.056-2.497s0.341-1.781,1.024-2.464C18.187,16.822,19.019,16.48,20,16.48z M31.2,16.48
		c0.981,0,1.813,0.342,2.496,1.024s1.024,1.504,1.024,2.464s-0.342,1.792-1.024,2.497c-0.683,0.703-1.515,1.055-2.496,1.055
		s-1.813-0.352-2.496-1.055c-0.683-0.705-1.023-1.537-1.023-2.497s0.341-1.781,1.023-2.464S30.219,16.48,31.2,16.48z"/>
</g>
</svg>
