<?xml version="1.0" encoding="utf-8"?>
<!-- Generator: Adobe Illustrator 16.0.0, SVG Export Plug-In . SVG Version: 6.00 Build 0)  -->
<!DOCTYPE svg PUBLIC "-//W3C//DTD SVG 1.1//EN" "http://www.w3.org/Graphics/SVG/1.1/DTD/svg11.dtd">
<svg version="1.1" id="Layer_1" xmlns="http://www.w3.org/2000/svg" xmlns:xlink="http://www.w3.org/1999/xlink" x="0px" y="0px"
	 width="40px" height="40px" viewBox="0 0 40 40" enable-background="new 0 0 40 40" xml:space="preserve">
<g>
	<path d="M31.822,28.938c0,1.238-0.799,1.857-2.399,1.857s-2.399-0.619-2.399-1.857V11.06c0-1.237,0.799-1.856,2.399-1.856
		s2.399,0.619,2.399,1.856V28.938z M25.317,20.956L10.175,30.44c-0.555,0.389-1.026,0.46-1.414,0.208
		c-0.389-0.249-0.583-0.733-0.583-1.455V10.806c0-0.721,0.194-1.206,0.583-1.455c0.388-0.25,0.859-0.181,1.414,0.207l15.143,9.485
		c0.389,0.277,0.582,0.61,0.582,0.998C25.899,20.374,25.706,20.68,25.317,20.956z"/>
</g>
</svg>
