<?xml version="1.0" encoding="utf-8"?>
<!-- Generator: Adobe Illustrator 16.0.0, SVG Export Plug-In . SVG Version: 6.00 Build 0)  -->
<!DOCTYPE svg PUBLIC "-//W3C//DTD SVG 1.1//EN" "http://www.w3.org/Graphics/SVG/1.1/DTD/svg11.dtd">
<svg version="1.1" id="Layer_1" xmlns="http://www.w3.org/2000/svg" xmlns:xlink="http://www.w3.org/1999/xlink" x="0px" y="0px"
	 width="100px" height="100px" viewBox="0 0 100 100" enable-background="new 0 0 100 100" xml:space="preserve">
<g>
	<path d="M66.637,12.406h-0.589h-5.945h-1.655v51.487c-3.002-1.218-6.584-1.639-10.306-0.898
		c-8.447,1.693-14.209,8.481-12.869,15.167c1.336,6.688,9.264,10.741,17.715,9.047c7.145-1.428,12.32-6.519,12.944-12.104h0.115
		V33.42c11.113,1.763,12.755,10.538,11.399,14.209c-0.513,1.399,0.395,2.45,2.115,0C91.849,30.114,65.208,23.965,66.637,12.406z"/>
	<g>
		<path d="M47.844,47.744H17.192v6.378h30.654v-6.378H47.844z"/>
	</g>
	<g>
		<path d="M47.844,35.923H17.192V42.3h30.654v-6.377H47.844z"/>
	</g>
	<g>
		<path d="M47.844,24.103H17.192v6.378h30.654v-6.378H47.844z"/>
	</g>
</g>
</svg>
