<?xml version="1.0" encoding="utf-8"?>
<!-- Generator: Adobe Illustrator 16.0.0, SVG Export Plug-In . SVG Version: 6.00 Build 0)  -->
<!DOCTYPE svg PUBLIC "-//W3C//DTD SVG 1.1//EN" "http://www.w3.org/Graphics/SVG/1.1/DTD/svg11.dtd">
<svg version="1.1" id="Layer_1" xmlns="http://www.w3.org/2000/svg" xmlns:xlink="http://www.w3.org/1999/xlink" x="0px" y="0px"
	 width="1000px" height="1000px" viewBox="0 0 1000 1000" enable-background="new 0 0 1000 1000" xml:space="preserve">
<g>
	<g>
		<path d="M516.344,270.938H91.094v32.75h425.25V270.938z M516.344,418.188H91.094v32.75h425.25V418.188z M516.344,565.438H91.094
			v32.688h425.25V565.438z M679.906,290.562l229,29.5c0-163.562-130.875-196.312-261.688-229v621.562H546.406
			c-96.125,0-128.188,50.875-128.188,97.375c0,39.438,29.5,98.938,130.812,98.938c144.938,0,130.875-116.312,130.875-196.312
			V290.562z M679.906,133.312c108.75,29.438,178.562,61.75,193.375,149.188l-193.375-24.938V133.312z M623.219,853.75
			c-14.688,14.875-39.625,22.438-74.188,22.438c-93.375,0-98.125-55.125-98.125-66.188c0-41.062,34.812-64.625,95.5-64.625h100.812
			V770.5h0.062C646.344,803.5,641.656,835.062,623.219,853.75z"/>
	</g>
</g>
</svg>
