<?xml version="1.0" encoding="utf-8"?>
<!-- Generator: Adobe Illustrator 16.0.0, SVG Export Plug-In . SVG Version: 6.00 Build 0)  -->
<!DOCTYPE svg PUBLIC "-//W3C//DTD SVG 1.1//EN" "http://www.w3.org/Graphics/SVG/1.1/DTD/svg11.dtd">
<svg version="1.1" id="Layer_1" xmlns="http://www.w3.org/2000/svg" xmlns:xlink="http://www.w3.org/1999/xlink" x="0px" y="0px"
	 width="40px" height="40px" viewBox="0 0 40 40" enable-background="new 0 0 40 40" xml:space="preserve">
<g>
	<g>
		<path d="M27.841,3.5c0,1,0.49,2.158,1.472,3.332c0.98,1.174,1.941,2.354,2.881,3.313c0.938,0.96,1.589,2.286,1.951,3.865
			s-0.054,3.25-1.248,4.957c-0.426,0.726-0.703,0.91-0.832,0.526c-0.043-0.128-0.043-0.291,0-0.505
			c0.213-0.384,0.277-0.977,0.192-1.788c-0.086-0.811-0.225-1.641-0.416-2.495c-0.192-0.853-0.821-1.631-1.546-2.335
			c-0.727-0.704-1.795-1.14-2.795-1.311v17.152c0,1.023-0.182,2.037-1.014,3.04s-1.866,1.761-3.274,2.272
			c-1.58,0.597-3.062,0.683-4.533,0.256c-1.473-0.428-2.401-1.237-2.827-2.432c-0.428-1.195-0.204-2.422,0.65-3.682
			c0.854-1.258,2.207-2.165,3.828-2.721c1.834-0.639,3.171-0.682,5.171-0.127V3.5H27.841z"/>
	</g>
	<g>
		<path d="M21.5,7.719v2.077c0,0.09,0.01,0.346-0.055,0.409c-0.064,0.065-0.105,0.295-0.209,0.295H8.078
			c-0.104,0-0.303-0.217-0.366-0.295C7.646,10.129,7.5,9.873,7.5,9.796V7.719c0-0.104,0.146-0.123,0.213-0.187
			C7.776,7.467,7.975,7.5,8.078,7.5h13.158c0.092,0,0.133-0.032,0.209,0.032C21.523,7.597,21.5,7.616,21.5,7.719z M21.5,13.25v2.096
			c0,0.091,0.01,0.081-0.055,0.145c-0.064,0.065-0.105,0.009-0.209,0.009H8.078c-0.104,0-0.302,0.056-0.366-0.009
			C7.646,15.427,7.5,15.437,7.5,15.346V13.25c0-0.09,0.146-0.378,0.212-0.443C7.776,12.743,7.974,12.5,8.078,12.5h13.158
			c0.092,0,0.133,0.243,0.209,0.307C21.523,12.873,21.5,13.16,21.5,13.25z M21.5,17.801v2.077c0,0.091,0.01,0.311-0.055,0.389
			c-0.064,0.077-0.105,0.233-0.209,0.233H8.078c-0.104,0-0.302-0.169-0.366-0.233C7.646,20.202,7.5,19.982,7.5,19.878v-2.077
			c0-0.09,0.146-0.144,0.212-0.208C7.776,17.527,7.974,17.5,8.078,17.5h13.158c0.092,0,0.133,0.015,0.209,0.092
			C21.523,17.67,21.5,17.724,21.5,17.801z"/>
	</g>
</g>
</svg>
