<?xml version="1.0" encoding="utf-8"?>
<!-- Generator: Adobe Illustrator 16.0.0, SVG Export Plug-In . SVG Version: 6.00 Build 0)  -->
<!DOCTYPE svg PUBLIC "-//W3C//DTD SVG 1.1//EN" "http://www.w3.org/Graphics/SVG/1.1/DTD/svg11.dtd">
<svg version="1.1" id="Layer_1" xmlns="http://www.w3.org/2000/svg" xmlns:xlink="http://www.w3.org/1999/xlink" x="0px" y="0px"
	 width="20px" height="20px" viewBox="0 0 20 20" enable-background="new 0 0 20 20" xml:space="preserve">
<g>
	<g>
		<path d="M13.305,2.355c0,0.457,0.25,0.985,0.752,1.584c0.5,0.599,0.99,1.143,1.469,1.632s0.811,1.138,0.996,1.943
			c0.186,0.806-0.027,1.644-0.637,2.515c-0.217,0.37-0.359,0.457-0.424,0.261c-0.023-0.064-0.023-0.151,0-0.261
			c0.107-0.196,0.141-0.501,0.098-0.915c-0.045-0.414-0.115-0.838-0.213-1.273s-0.332-0.833-0.701-1.192
			c-0.371-0.359-0.816-0.582-1.34-0.669v8.751c0.021,0.522-0.18,1.039-0.604,1.551c-0.426,0.512-0.996,0.898-1.715,1.16
			c-0.807,0.304-1.584,0.348-2.334,0.13c-0.752-0.218-1.235-0.631-1.453-1.24c-0.218-0.61-0.109-1.236,0.326-1.879
			c0.436-0.642,1.067-1.104,1.895-1.388C10.355,12.739,11.215,12.718,12,13V2.355H13.305z"/>
	</g>
</g>
<rect x="3" y="5" width="7" height="1"/>
<rect x="3" y="7" width="7" height="1"/>
<rect x="3" y="9" width="7" height="1"/>
</svg>
