<?xml version="1.0" encoding="utf-8"?>
<!-- Generator: Adobe Illustrator 16.0.0, SVG Export Plug-In . SVG Version: 6.00 Build 0)  -->
<!DOCTYPE svg PUBLIC "-//W3C//DTD SVG 1.1//EN" "http://www.w3.org/Graphics/SVG/1.1/DTD/svg11.dtd">
<svg version="1.1" id="Layer_1" xmlns="http://www.w3.org/2000/svg" xmlns:xlink="http://www.w3.org/1999/xlink" x="0px" y="0px"
	 width="40px" height="40px" viewBox="0 0 40 40" enable-background="new 0 0 40 40" xml:space="preserve">
<g>
	<g>
		<path d="M27.841,3.955c0,0.896,0.49,1.931,1.472,3.104c0.98,1.174,1.941,2.24,2.88,3.2s1.589,2.229,1.952,3.808
			c0.362,1.579-0.054,3.221-1.248,4.928c-0.427,0.726-0.704,0.896-0.832,0.512c-0.043-0.128-0.043-0.298,0-0.512
			c0.213-0.384,0.277-0.981,0.192-1.792c-0.086-0.811-0.225-1.642-0.416-2.496c-0.192-0.853-0.651-1.632-1.376-2.336
			c-0.726-0.704-1.601-1.141-2.624-1.312v17.152c0.042,1.024-0.353,2.037-1.185,3.04s-1.951,1.761-3.359,2.272
			c-1.58,0.597-3.104,0.683-4.576,0.256c-1.473-0.427-2.422-1.237-2.848-2.432c-0.428-1.195-0.215-2.421,0.639-3.681
			c0.854-1.258,2.092-2.165,3.713-2.72c1.834-0.64,3.52-0.683,5.056-0.128V3.955H27.841z"/>
	</g>
	<g>
		<path d="M21.586,7.719v2.077c0,0.09-0.033,0.168-0.098,0.232c-0.064,0.065-0.148,0.104-0.252,0.117H8.078
			c-0.104,0-0.188-0.039-0.252-0.117C7.761,9.951,7.729,9.873,7.729,9.796V7.719c0-0.104,0.032-0.188,0.098-0.252
			C7.891,7.402,7.975,7.37,8.078,7.37h13.158c0.092,0,0.176,0.033,0.252,0.097C21.566,7.532,21.6,7.616,21.586,7.719z M21.586,13.25
			v2.096c0,0.091-0.033,0.169-0.098,0.233c-0.064,0.065-0.148,0.097-0.252,0.097H8.078c-0.104,0-0.188-0.032-0.252-0.097
			c-0.065-0.064-0.098-0.142-0.098-0.233V13.25c0-0.09,0.032-0.168,0.098-0.233c0.064-0.064,0.148-0.097,0.252-0.097h13.158
			c0.092,0,0.176,0.033,0.252,0.097C21.566,13.083,21.6,13.16,21.586,13.25z M21.586,18.801v2.077c0,0.091-0.033,0.175-0.098,0.253
			c-0.064,0.077-0.148,0.109-0.252,0.097H8.078c-0.104,0-0.188-0.032-0.252-0.097c-0.065-0.065-0.098-0.149-0.098-0.253v-2.077
			c0-0.09,0.032-0.168,0.098-0.233c0.064-0.065,0.148-0.104,0.252-0.117h13.158c0.092,0,0.176,0.039,0.252,0.117
			C21.566,18.646,21.6,18.724,21.586,18.801z"/>
	</g>
</g>
</svg>
