<?xml version="1.0" encoding="utf-8"?>
<!-- Generator: Adobe Illustrator 16.0.0, SVG Export Plug-In . SVG Version: 6.00 Build 0)  -->
<!DOCTYPE svg PUBLIC "-//W3C//DTD SVG 1.1//EN" "http://www.w3.org/Graphics/SVG/1.1/DTD/svg11.dtd">
<svg version="1.1" id="Layer_1" xmlns="http://www.w3.org/2000/svg" xmlns:xlink="http://www.w3.org/1999/xlink" x="0px" y="0px"
	 width="40px" height="40px" viewBox="0 0 40 40" enable-background="new 0 0 40 40" xml:space="preserve">
<g>
	<path d="M33.439,11.04c0.896,0,1.654,0.31,2.273,0.928c0.617,0.619,0.928,1.376,0.928,2.272v11.521c0,0.854-0.311,1.6-0.928,2.24
		c-0.619,0.639-1.377,0.959-2.273,0.959H6.561c-0.854,0-1.6-0.32-2.24-0.959c-0.64-0.641-0.96-1.387-0.96-2.24V14.24
		c0-0.896,0.32-1.653,0.96-2.272c0.64-0.618,1.387-0.928,2.24-0.928h10.24V7.52l6.398,5.759l-6.398,5.761V15.52H7.84v8.96h24.32
		v-8.96h-7.041V11.04H33.439z"/>
</g>
</svg>
