<?xml version="1.0" encoding="utf-8"?>
<!-- Generator: Adobe Illustrator 16.0.0, SVG Export Plug-In . SVG Version: 6.00 Build 0)  -->
<!DOCTYPE svg PUBLIC "-//W3C//DTD SVG 1.1//EN" "http://www.w3.org/Graphics/SVG/1.1/DTD/svg11.dtd">
<svg version="1.1" id="Layer_1" xmlns="http://www.w3.org/2000/svg" xmlns:xlink="http://www.w3.org/1999/xlink" x="0px" y="0px"
	 width="100px" height="100px" viewBox="0 0 100 100" enable-background="new 0 0 100 100" xml:space="preserve">
<path d="M150.002,75V25l50,25L150.002,75z"/>
<path d="M50,19.172c-1.149-0.004-2.277,0.024-3.425,0.15c-3.034,0.33-6.046,1.115-8.93,2.382c-0.023,0.01-0.053-0.009-0.075,0
	c-11.308,4.875-18.531,16.157-18.531,28.281h-7.145l10.717,14.291l10.717-14.291h-7.145c0-9.288,5.629-18.019,14.29-21.732
	c8.86-3.916,19.459-1.827,26.272,4.986l5.061-5.061c-5.848-5.843-13.778-8.97-21.807-9.005V19.172z M77.389,35.696l-10.716,14.29
	h7.144c0,9.287-5.629,18.018-14.291,21.732c-8.86,3.913-19.459,1.825-26.271-4.987l-5.061,5.061
	c8.889,8.888,22.555,11.571,34.162,6.477c0.017-0.01,0.056,0.008,0.073,0c11.31-4.875,18.532-16.158,18.532-28.282h7.145
	L77.389,35.696z"/>
</svg>
