<?xml version="1.0" encoding="utf-8"?>
<!-- Generator: Adobe Illustrator 16.0.0, SVG Export Plug-In . SVG Version: 6.00 Build 0)  -->
<!DOCTYPE svg PUBLIC "-//W3C//DTD SVG 1.1//EN" "http://www.w3.org/Graphics/SVG/1.1/DTD/svg11.dtd">
<svg version="1.1" id="Layer_1" xmlns="http://www.w3.org/2000/svg" xmlns:xlink="http://www.w3.org/1999/xlink" x="0px" y="0px"
	 width="1000px" height="1000px" viewBox="0 0 1000 1000" enable-background="new 0 0 1000 1000" xml:space="preserve">
<path d="M231.694,144.93c-68.167,0-123.427,55.26-123.427,123.426c0,68.167,55.26,123.427,123.427,123.427
	c68.166,0,123.426-55.26,123.426-123.427C355.121,200.189,299.86,144.93,231.694,144.93z M231.694,363.879
	c-52.756,0-95.524-42.768-95.524-95.524c0-52.756,42.768-95.523,95.524-95.523c52.756,0,95.523,42.768,95.523,95.523
	C327.218,321.112,284.45,363.879,231.694,363.879z"/>
<g>
	<path d="M384.843,277.475c-0.598,10.2-2.187,20.132-4.682,29.7h431.379L688.466,431.544l20.868,20.981l158.514-160.145
		L709.278,132.125l-20.812,20.981l123.019,124.369H384.843z"/>
	<path d="M190.542,416.192c-10.282-2.856-20.128-6.754-29.419-11.577v140.498h29.419V416.192z"/>
	<polygon points="808.729,693.781 187.503,693.781 311.534,568.457 290.721,547.419 132.153,707.676 290.722,867.875 
		311.535,846.781 189.528,723.594 838.203,723.594 838.203,455.9 808.729,455.9 	"/>
</g>
<rect x="216.984" y="210.777" width="29.42" height="115.158"/>
</svg>
