<?xml version="1.0" encoding="utf-8"?>
<!-- Generator: Adobe Illustrator 16.0.0, SVG Export Plug-In . SVG Version: 6.00 Build 0)  -->
<!DOCTYPE svg PUBLIC "-//W3C//DTD SVG 1.1//EN" "http://www.w3.org/Graphics/SVG/1.1/DTD/svg11.dtd">
<svg version="1.1" id="Layer_1" xmlns="http://www.w3.org/2000/svg" xmlns:xlink="http://www.w3.org/1999/xlink" x="0px" y="0px"
	 width="40px" height="40px" viewBox="0 0 40 40" enable-background="new 0 0 40 40" xml:space="preserve">
<g>
	<path d="M32.16,15.52h-7.041v-4.48h8.32c0.896,0,1.654,0.309,2.273,0.928c0.617,0.619,0.928,1.376,0.928,2.272v11.521 M3.36,25.761
		V14.24c0-0.896,0.32-1.653,0.96-2.272c0.64-0.619,1.387-0.928,2.24-0.928H16.8V7.52l6.399,5.76L16.8,19.04v-3.52H7.84l0,8.96"/>
</g>
<g>
	<path d="M7.841,24.48h7.041v4.479h-8.32c-0.896,0-1.654-0.309-2.273-0.928c-0.617-0.618-0.928-1.376-0.928-2.271V14.24
		 M36.641,14.24v11.521c0,0.896-0.32,1.653-0.96,2.271c-0.64,0.619-1.387,0.928-2.24,0.928H23.201v3.521l-6.399-5.76l6.399-5.76
		v3.52h8.959v-8.96"/>
</g>
</svg>
