<?xml version="1.0" encoding="utf-8"?>
<!-- Generator: Adobe Illustrator 16.0.0, SVG Export Plug-In . SVG Version: 6.00 Build 0)  -->
<!DOCTYPE svg PUBLIC "-//W3C//DTD SVG 1.1//EN" "http://www.w3.org/Graphics/SVG/1.1/DTD/svg11.dtd">
<svg version="1.1" id="Layer_1" xmlns="http://www.w3.org/2000/svg" xmlns:xlink="http://www.w3.org/1999/xlink" x="0px" y="0px"
	 width="1000px" height="1000px" viewBox="0 0 1000 1000" enable-background="new 0 0 1000 1000" xml:space="preserve">
<path d="M203.279,114.383c-75.741,0-137.141,61.4-137.141,137.14c0,75.741,61.4,137.141,137.141,137.141
	c75.74,0,137.14-61.4,137.14-137.141C340.419,175.783,279.02,114.383,203.279,114.383z M203.279,357.661
	c-58.618,0-106.138-47.52-106.138-106.138c0-58.618,47.52-106.137,106.138-106.137c58.618,0,106.137,47.52,106.137,106.137
	C309.417,310.142,261.897,357.661,203.279,357.661z"/>
<g>
	<path d="M367.407,252.75c-0.083,11.309-1.308,22.345-3.569,33h482.318l-136.75,138.188l23.188,23.312l176.125-177.938
		L732.531,91.25l-23.125,23.312L846.094,252.75H367.407z"/>
	<path d="M843.031,715.312H156.157V408.79c-11.475-3.434-22.42-8.086-32.688-13.812v353.459h752.312V451h-32.75V715.312z"/>
</g>
<rect x="158.279" y="194.25" fill="none" width="90" height="139.25"/>
<text transform="matrix(1 0 0 1 164.8052 300.749)" font-family="'MyriadPro-Regular'" font-size="150">1</text>
</svg>
