<?xml version="1.0" encoding="utf-8"?>
<!-- Generator: Adobe Illustrator 16.0.0, SVG Export Plug-In . SVG Version: 6.00 Build 0)  -->
<!DOCTYPE svg PUBLIC "-//W3C//DTD SVG 1.1//EN" "http://www.w3.org/Graphics/SVG/1.1/DTD/svg11.dtd">
<svg version="1.1" id="Layer_1" xmlns="http://www.w3.org/2000/svg" xmlns:xlink="http://www.w3.org/1999/xlink" x="0px" y="0px"
	 width="100px" height="100px" viewBox="0 0 100 100" enable-background="new 0 0 100 100" xml:space="preserve">
<g id="XMLID_13_">
	<g>
		<g id="XMLID_10_">
			<g>
				<path d="M76.823,85.732L59.734,68.645c-4.683,3.064-10.28,4.861-16.321,4.861c-16.47,0-29.79-13.35-29.79-29.819
					c0-16.438,13.317-29.788,29.79-29.788c16.441,0,29.786,13.35,29.786,29.788c0,5.75-1.619,11.107-4.42,15.646l17.21,17.206
					c0.913,0.888,0.146,3.097-1.682,4.92l-2.562,2.57C79.917,85.852,77.707,86.616,76.823,85.732z M63.301,43.687
					c0-10.99-8.899-19.888-19.89-19.888c-10.991,0-19.916,8.898-19.916,19.888c0,10.991,8.925,19.918,19.916,19.918
					C54.401,63.604,63.301,54.68,63.301,43.687z"/>
			</g>
		</g>
	</g>
</g>
</svg>
