<?xml version="1.0" encoding="utf-8"?>
<!-- Generator: Adobe Illustrator 16.0.0, SVG Export Plug-In . SVG Version: 6.00 Build 0)  -->
<!DOCTYPE svg PUBLIC "-//W3C//DTD SVG 1.1//EN" "http://www.w3.org/Graphics/SVG/1.1/DTD/svg11.dtd">
<svg version="1.1" id="Layer_1" xmlns="http://www.w3.org/2000/svg" xmlns:xlink="http://www.w3.org/1999/xlink" x="0px" y="0px"
	 width="1000px" height="1000px" viewBox="0 0 1000 1000" enable-background="new 0 0 1000 1000" xml:space="preserve">
<path d="M952.046,869.331L696.723,614.008c45.816-63.45,72.779-141.34,72.779-225.602c0-213.196-172.773-385.969-385.891-385.969
	C170.336,2.438-2.438,175.211-2.438,388.406c0,213.195,172.773,386.049,386.048,386.049c87.004,0,167.15-28.815,231.676-77.394
	l254.515,254.514L952.046,869.331z M383.596,671.301c-156.084,0-282.957-126.875-282.957-282.895
	c0-156.018,126.873-282.893,282.958-282.893c155.956,0,282.829,126.873,282.829,282.893
	C666.426,544.428,539.553,671.301,383.596,671.301z"/>
</svg>
