<?xml version="1.0" encoding="utf-8"?>
<!-- Generator: Adobe Illustrator 16.0.0, SVG Export Plug-In . SVG Version: 6.00 Build 0)  -->
<!DOCTYPE svg PUBLIC "-//W3C//DTD SVG 1.1//EN" "http://www.w3.org/Graphics/SVG/1.1/DTD/svg11.dtd">
<svg version="1.1" id="Layer_1" xmlns="http://www.w3.org/2000/svg" xmlns:xlink="http://www.w3.org/1999/xlink" x="0px" y="0px"
	 width="1000px" height="1000px" viewBox="0 0 1000 1000" enable-background="new 0 0 1000 1000" xml:space="preserve">
<path d="M884.312,848.812L662.625,627.188c44.562-53.562,71.312-122.375,71.312-197.5c0-170.75-138.375-309.125-309.062-309.125
	c-170.812,0-309.188,138.375-309.188,309.125s138.375,309.188,309.188,309.188c75.125,0,143.875-26.812,197.438-71.375
	l221.625,221.688L884.312,848.812z M148.188,429.688c0-152.562,124.062-276.625,276.688-276.625
	c152.5,0,276.562,124.062,276.562,276.625S577.375,706.312,424.875,706.312C272.25,706.312,148.188,582.25,148.188,429.688z"/>
</svg>
