<?xml version="1.0" encoding="utf-8"?>
<!-- Generator: Adobe Illustrator 16.0.0, SVG Export Plug-In . SVG Version: 6.00 Build 0)  -->
<!DOCTYPE svg PUBLIC "-//W3C//DTD SVG 1.1//EN" "http://www.w3.org/Graphics/SVG/1.1/DTD/svg11.dtd">
<svg version="1.1" id="Layer_1" xmlns="http://www.w3.org/2000/svg" xmlns:xlink="http://www.w3.org/1999/xlink" x="0px" y="0px"
	 width="40px" height="40px" viewBox="0 0 40 40" enable-background="new 0 0 40 40" xml:space="preserve">
<g>
	<path d="M28.128,14.72c-1.152,0-2.271,0.342-3.36,1.024c-1.088,0.683-1.941,1.387-2.56,2.112c-0.619,0.726-1.504,1.835-2.656,3.328
		c-1.024,1.323-1.824,2.326-2.4,3.008c-0.576,0.684-1.408,1.504-2.496,2.465c-1.088,0.959-2.229,1.664-3.424,2.111
		c-1.195,0.449-2.496,0.672-3.904,0.672H4v-4.48h3.328c1.152,0,2.282-0.34,3.392-1.023c1.109-0.682,1.973-1.387,2.592-2.111
		c0.619-0.725,1.504-1.835,2.656-3.328c1.323-1.749,2.4-3.093,3.232-4.032c0.832-0.938,2.068-1.877,3.712-2.816
		c1.643-0.938,3.381-1.408,5.216-1.408h1.152V6.4L36,12.16l-6.72,5.76v-3.2H28.128z M12.64,17.536
		c-1.579-1.664-3.35-2.496-5.312-2.496H4v-4.48h3.328c2.986,0,5.696,1.152,8.128,3.456c-0.299,0.341-0.693,0.821-1.184,1.44
		c-0.491,0.619-0.779,0.971-0.864,1.056C13.237,16.768,12.981,17.109,12.64,17.536z M29.28,25.279V22.08L36,27.84l-6.72,5.76v-3.84
		h-1.152c-2.987,0-5.76-1.236-8.32-3.711c0.981-1.238,1.749-2.219,2.304-2.945c0-0.042,0.063-0.139,0.191-0.287
		c0.128-0.149,0.213-0.268,0.256-0.353c1.792,1.878,3.648,2.815,5.568,2.815H29.28z"/>
</g>
</svg>
