<?xml version="1.0" encoding="utf-8"?>
<!-- Generator: Adobe Illustrator 16.0.0, SVG Export Plug-In . SVG Version: 6.00 Build 0)  -->
<!DOCTYPE svg PUBLIC "-//W3C//DTD SVG 1.1//EN" "http://www.w3.org/Graphics/SVG/1.1/DTD/svg11.dtd">
<svg version="1.1" id="Layer_1" xmlns="http://www.w3.org/2000/svg" xmlns:xlink="http://www.w3.org/1999/xlink" x="0px" y="0px"
	 width="1000px" height="1000px" viewBox="0 0 1000 1000" enable-background="new 0 0 1000 1000" xml:space="preserve">
<g>
	<g>
		<path d="M739.375,589.281l107.062,107.438H653.5L254.812,270.844H91v32.688h149.625l398.75,426h207.062l-106.812,107
			l23.125,23.188L909,713.094L762.438,566.156L739.375,589.281z M240.625,696.719H91v32.812h163.812l158.125-169.062l-23.812-22.438
			L240.625,696.719z M653.5,303.532h192.938L739.625,410.657l23.125,23.188L909,287.157L762.438,140.282l-23.062,23.125
			l107.062,107.438H639.375L480.5,441.157l23.812,22.375L653.5,303.532z"/>
	</g>
</g>
</svg>
