<?xml version="1.0" encoding="utf-8"?>
<!-- Generator: Adobe Illustrator 16.0.0, SVG Export Plug-In . SVG Version: 6.00 Build 0)  -->
<!DOCTYPE svg PUBLIC "-//W3C//DTD SVG 1.1//EN" "http://www.w3.org/Graphics/SVG/1.1/DTD/svg11.dtd">
<svg version="1.1" id="Layer_1" xmlns="http://www.w3.org/2000/svg" xmlns:xlink="http://www.w3.org/1999/xlink" x="0px" y="0px"
	 width="100px" height="100px" viewBox="0 0 100 100" enable-background="new 0 0 100 100" xml:space="preserve">
<path d="M150.002,75V25l50,25L150.002,75z"/>
<path d="M186.667,19.172c-1.149-0.004-2.277,0.024-3.425,0.15c-3.034,0.33-6.047,1.115-8.93,2.382c-0.023,0.01-0.054-0.009-0.075,0
	c-11.308,4.875-18.531,16.157-18.531,28.281h-7.146l10.718,14.291l10.718-14.291h-7.146c0-9.288,5.629-18.019,14.29-21.732
	c8.86-3.916,19.459-1.827,26.272,4.986l5.061-5.061c-5.848-5.843-13.778-8.97-21.807-9.005V19.172z M214.056,35.696l-10.716,14.29
	h7.144c0,9.287-5.629,18.018-14.291,21.732c-8.86,3.913-19.459,1.825-26.271-4.987l-5.061,5.061
	c8.89,8.888,22.556,11.571,34.162,6.477c0.017-0.01,0.056,0.008,0.073,0c11.31-4.875,18.532-16.158,18.532-28.282h7.145
	L214.056,35.696z"/>
<path id="shiffle" d="M67.252,63.737c-1.651-0.522-3.76-1.878-6.121-4.242c-2.021-1.983-4.111-4.534-6.253-7.32
	c-0.509,0.684-1.021,1.361-1.531,2.056c-1.399,1.894-2.828,3.804-4.284,5.682c5.082,6.178,10.363,12.231,18.189,13.23v7.216
	l20.188-11.654l-20.188-11.65V63.737z M33.607,40.435c2.02,1.98,4.107,4.534,6.249,7.318c0.52-0.701,1.041-1.392,1.568-2.105
	c1.393-1.878,2.807-3.772,4.252-5.638c-5.426-6.58-11.041-13.108-19.76-13.424h-9.351v9.351h9.351
	C27.669,35.866,30.412,37.234,33.607,40.435z M67.252,36.182v6.771l20.188-11.655L67.252,19.643v7.071
	c-5.088,0.584-9.149,3.601-12.692,7.062c-5.868,5.835-10.997,13.804-16.058,20.138c-4.988,6.515-9.995,10.408-12.59,10.074h-9.351
	v9.35h9.351c5.839-0.076,10.363-3.382,14.268-7.192c5.862-5.836,10.997-13.801,16.053-20.139
	C60.357,40.622,64.474,37.084,67.252,36.182z"/>
</svg>
