<?xml version="1.0" encoding="utf-8"?>
<!-- Generator: Adobe Illustrator 16.0.0, SVG Export Plug-In . SVG Version: 6.00 Build 0)  -->
<!DOCTYPE svg PUBLIC "-//W3C//DTD SVG 1.1//EN" "http://www.w3.org/Graphics/SVG/1.1/DTD/svg11.dtd">
<svg version="1.1" id="Layer_1" xmlns="http://www.w3.org/2000/svg" xmlns:xlink="http://www.w3.org/1999/xlink" x="0px" y="0px"
	 width="100px" height="100px" viewBox="0 0 100 100" enable-background="new 0 0 100 100" xml:space="preserve">
<path id="shiffle" d="M67.252,63.736c-1.65-0.521-3.76-1.877-6.121-4.241c-2.021-1.983-4.111-4.534-6.253-7.32
	c-0.509,0.685-1.021,1.361-1.53,2.056c-1.399,1.895-2.828,3.805-4.285,5.683c5.082,6.178,10.363,12.231,18.189,13.229v7.217
	l20.188-11.654l-20.188-11.65V63.736z M33.607,40.435c2.02,1.98,4.107,4.534,6.249,7.318c0.52-0.701,1.041-1.392,1.568-2.105
	c1.393-1.878,2.807-3.772,4.252-5.638c-5.426-6.58-11.041-13.108-19.76-13.424h-9.351v9.351h9.351
	C27.669,35.866,30.412,37.234,33.607,40.435z M67.252,36.182v6.771l20.188-11.655L67.252,19.643v7.071
	c-5.088,0.584-9.148,3.601-12.691,7.062c-5.869,5.835-10.998,13.804-16.059,20.138c-4.988,6.516-9.995,10.408-12.59,10.074h-9.351
	v9.35h9.351c5.839-0.076,10.363-3.382,14.268-7.191c5.862-5.836,10.997-13.801,16.052-20.14
	C60.357,40.622,64.475,37.084,67.252,36.182z"/>
</svg>
