<?xml version="1.0" encoding="utf-8"?>
<!-- Generator: Adobe Illustrator 16.0.0, SVG Export Plug-In . SVG Version: 6.00 Build 0)  -->
<!DOCTYPE svg PUBLIC "-//W3C//DTD SVG 1.1//EN" "http://www.w3.org/Graphics/SVG/1.1/DTD/svg11.dtd">
<svg version="1.1" id="Layer_1" xmlns="http://www.w3.org/2000/svg" xmlns:xlink="http://www.w3.org/1999/xlink" x="0px" y="0px"
	 width="20px" height="20px" viewBox="0 0 20 20" enable-background="new 0 0 20 20" xml:space="preserve">
<g>
	<path d="M8.124,13.04c-0.003,1.474-0.01,2.362-0.019,2.665l0.004,0.092c-0.042,0.506-0.271,0.964-0.689,1.375
		c-0.418,0.408-0.949,0.666-1.591,0.772c-0.702,0.127-1.346,0.037-1.934-0.273c-0.588-0.31-0.938-0.752-1.051-1.322
		c-0.103-0.571,0.068-1.099,0.514-1.58c0.446-0.481,1.029-0.792,1.751-0.93c0.641-0.126,1.244-0.063,1.809,0.188L6.917,4.151
		l8.951-1.205c-0.04,7.341-0.063,11.158-0.072,11.452c0.011,0.514-0.2,0.981-0.627,1.401c-0.429,0.42-0.969,0.694-1.619,0.819
		c-0.723,0.13-1.377,0.043-1.965-0.256c-0.585-0.301-0.925-0.738-1.019-1.309c-0.093-0.572,0.073-1.109,0.499-1.61
		c0.423-0.501,1.001-0.815,1.733-0.945c0.683-0.117,1.315-0.03,1.903,0.259l-0.022-7.251L8.176,6.454"/>
</g>
</svg>
