<?xml version="1.0" encoding="utf-8"?>
<!-- Generator: Adobe Illustrator 16.0.0, SVG Export Plug-In . SVG Version: 6.00 Build 0)  -->
<!DOCTYPE svg PUBLIC "-//W3C//DTD SVG 1.1//EN" "http://www.w3.org/Graphics/SVG/1.1/DTD/svg11.dtd">
<svg version="1.1" id="Layer_1" xmlns="http://www.w3.org/2000/svg" xmlns:xlink="http://www.w3.org/1999/xlink" x="0px" y="0px"
	 width="40px" height="40px" viewBox="0 0 40 40" enable-background="new 0 0 40 40" xml:space="preserve">
<g>
	<path d="M16.097,25.01c-0.007,2.873-0.019,4.605-0.036,5.195l0.007,0.178c-0.08,0.986-0.527,1.879-1.342,2.679
		c-0.815,0.797-1.849,1.3-3.1,1.507c-1.368,0.248-2.624,0.071-3.769-0.534c-1.145-0.604-1.827-1.464-2.047-2.577
		c-0.201-1.113,0.133-2.139,1.002-3.078c0.869-0.938,2.005-1.543,3.412-1.814c1.249-0.244,2.425-0.123,3.526,0.366L13.744,7.688
		L31.188,5.34c-0.078,14.307-0.123,21.745-0.141,22.317c0.019,1.002-0.39,1.914-1.222,2.733c-0.835,0.818-1.887,1.351-3.155,1.597
		c-1.408,0.251-2.683,0.084-3.828-0.501c-1.143-0.585-1.806-1.436-1.986-2.55c-0.182-1.115,0.141-2.16,0.971-3.137
		c0.826-0.977,1.953-1.59,3.38-1.843c1.329-0.229,2.565-0.06,3.709,0.506l-0.046-14.132l-12.672,1.846"/>
</g>
</svg>
