<?xml version="1.0" encoding="utf-8"?>
<!-- Generator: Adobe Illustrator 16.0.0, SVG Export Plug-In . SVG Version: 6.00 Build 0)  -->
<!DOCTYPE svg PUBLIC "-//W3C//DTD SVG 1.1//EN" "http://www.w3.org/Graphics/SVG/1.1/DTD/svg11.dtd">
<svg version="1.1" id="Layer_1" xmlns="http://www.w3.org/2000/svg" xmlns:xlink="http://www.w3.org/1999/xlink" x="0px" y="0px"
	 width="100px" height="100px" viewBox="0 0 100 100" enable-background="new 0 0 100 100" xml:space="preserve">
<path d="M82.333,15.668c-42.916,0-51.5,8.583-51.5,8.583v35.138c-1.287-0.428-2.573-0.805-4.292-0.805
	c-7.297,0-12.875,5.578-12.875,12.875s5.578,12.874,12.875,12.874c7.296,0,12.875-5.577,12.875-12.874V37.528
	c6.438-2.146,17.166-3.862,34.334-4.292v22.397c-1.289-0.855-2.574-1.342-4.292-1.342c-7.297,0-12.876,5.578-12.876,12.875
	c0,7.296,5.579,12.875,12.876,12.875c7.294,0,12.874-5.579,12.874-12.875V15.668z"/>
</svg>
