<?xml version="1.0" encoding="utf-8"?>
<!-- Generator: Adobe Illustrator 16.0.0, SVG Export Plug-In . SVG Version: 6.00 Build 0)  -->
<!DOCTYPE svg PUBLIC "-//W3C//DTD SVG 1.1//EN" "http://www.w3.org/Graphics/SVG/1.1/DTD/svg11.dtd">
<svg version="1.1" id="Layer_1" xmlns="http://www.w3.org/2000/svg" xmlns:xlink="http://www.w3.org/1999/xlink" x="0px" y="0px"
	 width="40px" height="40px" viewBox="0 0 40 40" enable-background="new 0 0 40 40" xml:space="preserve">
<g>
	<path d="M18.88,10.272v19.457c0,0.299-0.118,0.565-0.352,0.8c-0.235,0.235-0.501,0.342-0.8,0.32c-0.299-0.021-0.565-0.129-0.8-0.32
		l-5.952-5.952H6.304c-0.32,0-0.587-0.117-0.8-0.352c-0.213-0.235-0.331-0.501-0.352-0.801v-6.848c0-0.32,0.117-0.586,0.352-0.8
		c0.234-0.213,0.501-0.331,0.8-0.352h4.672l5.952-5.952c0.213-0.213,0.48-0.32,0.8-0.32c0.32,0,0.586,0.107,0.8,0.32
		C18.741,9.686,18.859,9.952,18.88,10.272z"/>
</g>
</svg>
