<?xml version="1.0" encoding="utf-8"?>
<!-- Generator: Adobe Illustrator 16.0.0, SVG Export Plug-In . SVG Version: 6.00 Build 0)  -->
<!DOCTYPE svg PUBLIC "-//W3C//DTD SVG 1.1//EN" "http://www.w3.org/Graphics/SVG/1.1/DTD/svg11.dtd">
<svg version="1.1" id="Layer_1" xmlns="http://www.w3.org/2000/svg" xmlns:xlink="http://www.w3.org/1999/xlink" x="0px" y="0px"
	 width="1000px" height="1000px" viewBox="0 0 1000 1000" enable-background="new 0 0 1000 1000" xml:space="preserve">
<g>
	<g>
		<path d="M122.375,384.13v231.74h190.033l157.623,157.623V226.507L312.408,384.13H122.375z M345.172,416.806l78.458-78.457v323.125
			l-78.458-78.367l-13.548-13.639h-19.216h-143.72V430.531h143.72h19.216L345.172,416.806z M535.117,348
			c31.701,42.505,50.74,95.017,50.74,151.956c0,57.027-19.039,109.538-50.74,152.044l37.104,27.628
			c37.546-50.209,60.038-112.284,60.038-179.672c0-67.299-22.492-129.375-60.038-179.672L535.117,348z"/>
	</g>
</g>
</svg>
