<?xml version="1.0" encoding="utf-8"?>
<!-- Generator: Adobe Illustrator 16.0.0, SVG Export Plug-In . SVG Version: 6.00 Build 0)  -->
<!DOCTYPE svg PUBLIC "-//W3C//DTD SVG 1.1//EN" "http://www.w3.org/Graphics/SVG/1.1/DTD/svg11.dtd">
<svg version="1.1" id="Layer_1" xmlns="http://www.w3.org/2000/svg" xmlns:xlink="http://www.w3.org/1999/xlink" x="0px" y="0px"
	 width="40px" height="40px" viewBox="0 0 40 40" enable-background="new 0 0 40 40" xml:space="preserve">
<g>
	<path d="M18.88,10.272v19.457c0,0.299-0.118,0.565-0.352,0.8c-0.235,0.235-0.501,0.342-0.8,0.32c-0.299-0.021-0.565-0.129-0.8-0.32
		l-5.952-5.952H6.304c-0.32,0-0.587-0.117-0.8-0.352c-0.213-0.235-0.331-0.501-0.352-0.801v-6.848c0-0.32,0.117-0.586,0.352-0.8
		c0.234-0.213,0.501-0.331,0.8-0.352h4.672l5.952-5.952c0.213-0.213,0.48-0.32,0.8-0.32c0.32,0,0.586,0.107,0.8,0.32
		C18.741,9.686,18.859,9.952,18.88,10.272z M25.729,20c0,0.896-0.256,1.739-0.769,2.528c-0.512,0.789-1.184,1.344-2.016,1.664
		c-0.107,0.063-0.256,0.096-0.448,0.096c-0.299,0-0.565-0.106-0.8-0.32c-0.235-0.213-0.342-0.49-0.32-0.832
		c0-0.255,0.064-0.469,0.192-0.64c0.128-0.17,0.309-0.32,0.544-0.447c0.234-0.129,0.438-0.257,0.608-0.385
		c0.17-0.128,0.341-0.341,0.512-0.64s0.234-0.64,0.192-1.024c-0.044-0.384-0.107-0.725-0.192-1.024
		c-0.086-0.298-0.256-0.512-0.512-0.64c-0.257-0.128-0.459-0.256-0.608-0.384l-0.544-0.448c-0.214-0.171-0.277-0.384-0.192-0.64
		c0-0.32,0.106-0.597,0.32-0.832c0.213-0.234,0.48-0.341,0.8-0.32c0.192,0,0.341,0.032,0.448,0.096
		c0.832,0.32,1.504,0.875,2.016,1.664C25.473,18.262,25.729,19.104,25.729,20z M30.305,20c0,1.813-0.513,3.499-1.536,5.057
		c-1.024,1.557-2.357,2.677-4,3.359c-0.171,0.064-0.32,0.096-0.448,0.096c-0.32,0-0.598-0.116-0.832-0.352
		c-0.235-0.234-0.342-0.501-0.32-0.8c0-0.469,0.225-0.821,0.673-1.057c0.682-0.341,1.141-0.607,1.376-0.8
		c0.874-0.64,1.557-1.439,2.048-2.399C27.755,22.145,28,21.109,28,20c0-1.109-0.245-2.144-0.735-3.104
		c-0.491-0.96-1.174-1.76-2.048-2.4c-0.235-0.192-0.694-0.458-1.376-0.8c-0.448-0.234-0.673-0.586-0.673-1.056
		c0-0.298,0.106-0.565,0.32-0.8c0.213-0.235,0.48-0.352,0.8-0.352c0.149,0,0.31,0.032,0.48,0.096c1.664,0.704,2.997,1.824,4,3.36
		C29.771,16.48,30.283,18.166,30.305,20z"/>
</g>
</svg>
