<?xml version="1.0" encoding="utf-8"?>
<!-- Generator: Adobe Illustrator 16.0.0, SVG Export Plug-In . SVG Version: 6.00 Build 0)  -->
<!DOCTYPE svg PUBLIC "-//W3C//DTD SVG 1.1//EN" "http://www.w3.org/Graphics/SVG/1.1/DTD/svg11.dtd">
<svg version="1.1" id="Layer_1" xmlns="http://www.w3.org/2000/svg" xmlns:xlink="http://www.w3.org/1999/xlink" x="0px" y="0px"
	 width="1000px" height="1000px" viewBox="0 0 1000 1000" enable-background="new 0 0 1000 1000" xml:space="preserve">
<g>
	<g>
		<path d="M122.375,384.13v231.74h190.033l157.623,157.623V226.507L312.408,384.13H122.375z M345.172,416.806l78.458-78.457v323.126
			l-78.458-78.368l-13.548-13.638h-19.216h-143.72V430.531h143.72h19.216L345.172,416.806z M795.726,153.983l-37.457,27.805
			C824.683,270.694,864,380.854,864,499.956c0,119.19-39.317,229.35-105.731,318.256l37.457,27.806
			c71.993-96.61,114.587-216.333,114.587-346.062C910.312,370.227,867.719,250.505,795.726,153.983z M683.619,237.487l-37.104,27.54
			c48.969,65.706,78.457,146.908,78.457,234.929c0,88.108-29.488,169.312-78.457,234.929l37.104,27.717
			c54.725-73.498,87.666-164.176,87.666-262.646C771.285,401.575,738.344,310.897,683.619,237.487z M535.117,348
			c31.701,42.505,50.74,95.017,50.74,151.956c0,57.027-19.039,109.538-50.74,152.044l37.104,27.628
			c37.546-50.209,60.038-112.284,60.038-179.672c0-67.299-22.492-129.375-60.038-179.672L535.117,348z"/>
	</g>
</g>
</svg>
