<?xml version="1.0" encoding="utf-8"?>
<!-- Generator: Adobe Illustrator 16.0.0, SVG Export Plug-In . SVG Version: 6.00 Build 0)  -->
<!DOCTYPE svg PUBLIC "-//W3C//DTD SVG 1.1//EN" "http://www.w3.org/Graphics/SVG/1.1/DTD/svg11.dtd">
<svg version="1.1" id="Layer_1" xmlns="http://www.w3.org/2000/svg" xmlns:xlink="http://www.w3.org/1999/xlink" x="0px" y="0px"
	 width="100px" height="100px" viewBox="0 0 100 100" enable-background="new 0 0 100 100" xml:space="preserve">
<path d="M150.002,75V25l50,25L150.002,75z"/>
<path d="M186.667,19.172c-1.149-0.004-2.277,0.024-3.425,0.15c-3.034,0.33-6.047,1.115-8.93,2.382c-0.023,0.01-0.054-0.009-0.075,0
	c-11.308,4.875-18.531,16.157-18.531,28.281h-7.146l10.718,14.291l10.718-14.291h-7.146c0-9.288,5.629-18.019,14.29-21.732
	c8.86-3.916,19.459-1.827,26.272,4.986l5.061-5.061c-5.848-5.843-13.778-8.97-21.807-9.005V19.172z M214.056,35.696l-10.716,14.29
	h7.144c0,9.287-5.629,18.018-14.291,21.732c-8.86,3.913-19.459,1.825-26.271-4.987l-5.061,5.061
	c8.89,8.888,22.556,11.571,34.162,6.477c0.017-0.01,0.056,0.008,0.073,0c11.31-4.875,18.532-16.158,18.532-28.282h7.145
	L214.056,35.696z"/>
<path id="shiffle" d="M212.585,3.021c-1.651-0.522-3.76-1.878-6.121-4.242c-2.021-1.983-4.111-4.534-6.253-7.32
	c-0.509,0.684-1.021,1.361-1.531,2.056c-1.399,1.894-2.828,3.804-4.284,5.682c5.082,6.178,10.363,12.231,18.189,13.23v7.216
	l20.188-11.654l-20.188-11.65V3.021z M178.939-20.281c2.02,1.98,4.107,4.534,6.249,7.318c0.52-0.701,1.041-1.392,1.568-2.105
	c1.394-1.878,2.808-3.772,4.252-5.638c-5.426-6.58-11.04-13.108-19.76-13.424h-9.351v9.351h9.351
	C173.002-24.85,175.744-23.481,178.939-20.281z M212.585-24.534v6.771l20.188-11.655l-20.188-11.655v7.071
	c-5.088,0.584-9.149,3.601-12.692,7.062c-5.867,5.835-10.996,13.804-16.059,20.138c-4.988,6.515-9.994,10.408-12.59,10.074h-9.351
	v9.35h9.351c5.839-0.076,10.363-3.382,14.268-7.192c5.863-5.836,10.997-13.801,16.054-20.139
	C205.69-20.094,209.807-23.631,212.585-24.534z"/>
<path id="volume_3" d="M18.444,38.946V61.48H31.27l19.207,15.758l0.011-54.063L31.281,38.946H18.444L18.444,38.946z M57.849,36.354
	c-1.126-1.109-2.915-1.109-4.042,0.01c-1.109,1.115-1.109,2.92,0.006,4.037v-0.005c2.465,2.467,3.986,5.852,3.986,9.607
	c0,3.746-1.517,7.125-3.983,9.582c-1.123,1.121-1.123,2.919-0.005,4.053c0.555,0.558,1.284,0.837,2.018,0.837
	c0.735,0,1.485-0.279,2.023-0.837c3.486-3.483,5.649-8.322,5.649-13.629C63.506,44.679,61.332,39.836,57.849,36.354z M64.398,29.807
	c-1.126-1.115-2.916-1.115-4.035,0c-1.121,1.116-1.121,2.927,0,4.036C64.504,37.984,67.08,43.681,67.08,50
	c0,6.313-2.557,12.007-6.715,16.155c-1.129,1.109-1.129,2.912,0,4.032c0.538,0.552,1.287,0.839,2.023,0.839
	c0.733,0,1.486-0.287,2.018-0.839c5.17-5.17,8.387-12.315,8.381-20.187C72.771,42.129,69.566,34.964,64.398,29.807z M70.613,23.594
	c-1.129-1.117-2.918-1.111-4.029,0.005c-1.121,1.111-1.121,2.919,0.005,4.033h-0.005c5.735,5.733,9.264,13.619,9.264,22.37
	c0,8.74-3.528,16.633-9.259,22.367c-1.12,1.118-1.12,2.913,0.006,4.041c0.552,0.538,1.282,0.831,2.019,0.831
	c0.729,0,1.463-0.298,2.018-0.836c6.738-6.754,10.937-16.112,10.926-26.403C81.567,39.697,77.369,30.337,70.613,23.594z"/>
</svg>
